<?xml version="1.0" encoding="utf-8"?>
<!-- Generator: Adobe Illustrator 26.0.1, SVG Export Plug-In . SVG Version: 6.00 Build 0)  -->
<svg version="1.1" id="Layer_1" xmlns="http://www.w3.org/2000/svg" xmlns:xlink="http://www.w3.org/1999/xlink" x="0px" y="0px"
	 viewBox="0 0 612 792" style="enable-background:new 0 0 612 792;" xml:space="preserve">
<style type="text/css">
	.st0{stroke:#000000;stroke-width:3;stroke-miterlimit:10;}
	.st1{fill:none;stroke:#000000;stroke-width:3;stroke-miterlimit:10;}
</style>
<ellipse class="st0" cx="365.91" cy="486.19" rx="8.63" ry="8.68"/>
<ellipse class="st0" cx="293.76" cy="324.34" rx="8.63" ry="8.68"/>
<ellipse class="st0" cx="478.07" cy="486.19" rx="8.63" ry="8.68"/>
<ellipse class="st0" cx="429.44" cy="324.34" rx="8.63" ry="8.68"/>
<ellipse class="st0" cx="565.13" cy="324.34" rx="8.63" ry="8.68"/>
<line class="st1" x1="365.91" y1="486.19" x2="293.76" y2="324.34"/>
<line class="st1" x1="429.44" y1="324.34" x2="365.91" y2="486.19"/>
<line class="st1" x1="478.07" y1="486.19" x2="429.44" y2="324.34"/>
<line class="st1" x1="565.13" y1="324.34" x2="478.07" y2="486.19"/>
<ellipse class="st0" cx="244.79" cy="486.19" rx="8.07" ry="8.87"/>
<ellipse class="st0" cx="173.19" cy="326.4" rx="8.07" ry="8.87"/>
<line class="st1" x1="244.79" y1="486.19" x2="293.76" y2="324.34"/>
<line class="st1" x1="175.89" y1="332.42" x2="244.79" y2="486.19"/>
<circle class="st0" cx="77.67" cy="326.4" r="9.63"/>
<circle class="st0" cx="117.29" cy="486.19" r="9.63"/>
<line class="st1" x1="173.19" y1="326.4" x2="117.29" y2="486.19"/>
<line class="st1" x1="77.67" y1="324.34" x2="117.29" y2="486.19"/>
</svg>
