<?xml version="1.0" encoding="utf-8"?>
<!-- Generator: Adobe Illustrator 26.0.1, SVG Export Plug-In . SVG Version: 6.00 Build 0)  -->
<svg version="1.1" id="Layer_1" xmlns="http://www.w3.org/2000/svg" xmlns:xlink="http://www.w3.org/1999/xlink" x="0px" y="0px"
	 viewBox="0 0 612 792" style="enable-background:new 0 0 612 792;" xml:space="preserve">
<style type="text/css">
	.st0{stroke:#000000;stroke-width:3;stroke-miterlimit:10;}
	.st1{fill:none;stroke:#000000;stroke-width:3;stroke-miterlimit:10;}
	.st2{fill:none;}
</style>
<g>
	
		<ellipse transform="matrix(1 -6.984028e-03 6.984028e-03 1 -2.2484 1.5241)" class="st0" cx="217.09" cy="322.7" rx="8.06" ry="7.32"/>
</g>
<g>
	
		<ellipse transform="matrix(1 -6.984028e-03 6.984028e-03 1 -3.0117 1.5321)" class="st0" cx="217.86" cy="431.99" rx="8.06" ry="7.32"/>
</g>
<g>
	
		<ellipse transform="matrix(1 -6.984028e-03 6.984028e-03 1 -1.7544 3.136)" class="st0" cx="448.14" cy="252.77" rx="8.06" ry="7.32"/>
</g>
<g>
	
		<ellipse transform="matrix(1 -6.984028e-03 6.984028e-03 1 -2.4178 3.1429)" class="st0" cx="448.8" cy="347.75" rx="8.06" ry="7.32"/>
</g>
<g>
	
		<ellipse transform="matrix(1 -6.984028e-03 6.984028e-03 1 -3.7447 3.1368)" class="st0" cx="447.26" cy="537.74" rx="8.06" ry="7.32"/>
</g>
<line class="st1" x1="217.09" y1="322.7" x2="448.14" y2="252.77"/>
<line class="st1" x1="445.93" y1="347.77" x2="217.86" y2="431.99"/>
<line class="st1" x1="447.26" y1="537.74" x2="217.09" y2="322.7"/>
<rect x="212.67" y="405.5" transform="matrix(1 -6.984251e-03 6.984251e-03 1 -2.8473 1.5173)" class="st2" width="6.29" height="5.86"/>
<rect x="443.77" y="230.92" transform="matrix(1 -6.984251e-03 6.984251e-03 1 -1.6903 3.188)" class="st2" width="23.65" height="25.37"/>
<g>
	
		<ellipse transform="matrix(1 -6.984028e-03 6.984028e-03 1 -3.6388 1.5386)" class="st0" cx="218.48" cy="521.77" rx="8.06" ry="7.32"/>
</g>
<line class="st1" x1="448.8" y1="347.75" x2="218.48" y2="521.77"/>
</svg>
