<?xml version="1.0" encoding="utf-8"?>
<!-- Generator: Adobe Illustrator 26.0.1, SVG Export Plug-In . SVG Version: 6.00 Build 0)  -->
<svg version="1.1" id="Layer_1" xmlns="http://www.w3.org/2000/svg" xmlns:xlink="http://www.w3.org/1999/xlink" x="0px" y="0px"
	 viewBox="0 0 612 792" style="enable-background:new 0 0 612 792;" xml:space="preserve">
<style type="text/css">
	.st0{stroke:#000000;stroke-width:3;stroke-miterlimit:10;}
	.st1{fill:none;stroke:#000000;stroke-width:3;stroke-miterlimit:10;}
	.st2{fill:none;}
</style>
<g>
	<circle class="st0" cx="110" cy="263" r="11.25"/>
</g>
<g>
	<circle class="st0" cx="110" cy="431" r="11.25"/>
</g>
<g>
	<circle class="st0" cx="433" cy="158" r="11.25"/>
</g>
<g>
	<circle class="st0" cx="433" cy="304" r="11.25"/>
</g>
<g>
	<circle class="st0" cx="429" cy="450" r="11.25"/>
</g>
<g>
	<circle class="st0" cx="429" cy="596" r="11.25"/>
</g>
<line class="st1" x1="110" y1="263" x2="433" y2="158"/>
<line class="st1" x1="429" y1="304" x2="110" y2="431"/>
<line class="st1" x1="429" y1="596" x2="110" y2="263"/>
<line class="st1" x1="429" y1="450" x2="110" y2="263"/>
<g>
	<g>
		<path d="M104.57,245.63h2.92v-9.39h-2.32v-1.06c1.16-0.2,2.01-0.51,2.71-0.94h1.26v11.39h2.63V247h-7.2V245.63z"/>
	</g>
</g>
<rect x="103" y="390.25" class="st2" width="8.77" height="9"/>
<g>
	<g>
		<path d="M427.53,137.19l0.83-1.07c0.77,0.8,1.76,1.5,3.26,1.5c1.55,0,2.65-0.91,2.65-2.34c0-1.52-1.04-2.53-4.07-2.53v-1.26
			c2.7,0,3.62-1.04,3.62-2.38c0-1.24-0.85-2.02-2.21-2.02c-1.07,0-1.97,0.54-2.72,1.29l-0.89-1.04c0.99-0.91,2.16-1.59,3.67-1.59
			c2.22,0,3.82,1.18,3.82,3.24c0,1.54-0.93,2.52-2.32,3.03v0.08c1.54,0.36,2.77,1.49,2.77,3.24c0,2.27-1.88,3.65-4.21,3.65
			C429.67,138.99,428.39,138.13,427.53,137.19z"/>
	</g>
</g>
<g>
	<g>
		<path d="M435.08,279.45c0-0.67,0.05-1.77,0.09-2.44h-0.08c-0.32,0.61-0.68,1.17-1.04,1.8l-2.98,4.36h7.3v1.31h-9.03v-1.09
			l5.46-8.15h1.83V288h-1.56V279.45z"/>
	</g>
</g>
<g>
	<g>
		<path d="M429.24,426.49l0.81-1.07c0.76,0.76,1.72,1.45,3.22,1.45c1.55,0,2.79-1.13,2.79-2.91c0-1.76-1.07-2.8-2.71-2.8
			c-0.88,0-1.43,0.27-2.19,0.78l-0.87-0.56l0.42-6.14h6.38v1.41h-4.94l-0.34,3.79c0.59-0.32,1.17-0.53,1.96-0.53
			c2.17,0,3.95,1.24,3.95,4c0,2.77-2.08,4.33-4.29,4.33C431.38,428.24,430.13,427.38,429.24,426.49z"/>
	</g>
</g>
<g>
	<g>
		<path d="M424.59,574.1c0-5.13,2.32-7.11,4.86-7.11c1.37,0,2.36,0.58,3.08,1.35l-0.92,1.03c-0.51-0.62-1.3-1.01-2.1-1.01
			c-1.83,0-3.37,1.46-3.37,5.74c0,3.13,1.02,4.84,2.85,4.84c1.25,0,2.22-1.12,2.22-2.8c0-1.66-0.78-2.71-2.36-2.71
			c-0.83,0-1.87,0.5-2.74,1.81l-0.06-1.3c0.8-1.07,2-1.74,3.08-1.74c2.21,0,3.64,1.33,3.64,3.95c0,2.44-1.72,4.09-3.77,4.09
			C426.48,580.24,424.59,578.2,424.59,574.1z"/>
	</g>
</g>
<g>
	<g>
		<path d="M105.37,412.78c3.83-3.82,6-6.12,6-8.19c0-1.46-0.79-2.49-2.42-2.49c-1.07,0-1.99,0.68-2.71,1.53l-0.96-0.93
			c1.07-1.17,2.22-1.94,3.87-1.94c2.36,0,3.83,1.49,3.83,3.76c0,2.39-2.2,4.77-5.21,7.94c0.69-0.05,1.48-0.11,2.15-0.11h3.69v1.41
			h-8.24V412.78z"/>
	</g>
</g>
</svg>
