<?xml version="1.0" encoding="utf-8"?>
<!-- Generator: Adobe Illustrator 26.0.1, SVG Export Plug-In . SVG Version: 6.00 Build 0)  -->
<svg version="1.1" id="Layer_1" xmlns="http://www.w3.org/2000/svg" xmlns:xlink="http://www.w3.org/1999/xlink" x="0px" y="0px"
	 viewBox="0 0 612 792" style="enable-background:new 0 0 612 792;" xml:space="preserve">
<style type="text/css">
	.st0{fill:#FFFFFF;stroke:#000000;stroke-width:3;stroke-miterlimit:10;}
	.st1{fill:none;stroke:#000000;stroke-width:3;stroke-miterlimit:10;}
	.st2{stroke:#000000;stroke-width:3;stroke-miterlimit:10;}
</style>
<polygon class="st0" points="454.49,461.74 287.8,549.62 121.11,461.74 121.11,285.97 287.8,198.09 454.49,285.97 "/>
<line class="st1" x1="121.11" y1="285.97" x2="454.49" y2="285.97"/>
<line class="st1" x1="454.49" y1="461.74" x2="121.11" y2="461.74"/>
<line class="st1" x1="121.11" y1="285.97" x2="454.49" y2="461.74"/>
<line class="st1" x1="121.11" y1="461.74" x2="454.49" y2="285.97"/>
<line class="st1" x1="287.8" y1="549.62" x2="287.8" y2="198.09"/>
<line class="st1" x1="127.22" y1="461.74" x2="287.8" y2="198.09"/>
<line class="st1" x1="287.8" y1="204.17" x2="454.49" y2="461.74"/>
<line class="st1" x1="287.8" y1="549.62" x2="454.49" y2="285.97"/>
<line class="st1" x1="287.8" y1="549.62" x2="121.11" y2="285.97"/>
<circle class="st2" cx="287.8" cy="198.09" r="10.42"/>
<circle class="st2" cx="454.49" cy="285.97" r="10.42"/>
<circle class="st2" cx="454.49" cy="461.74" r="10.42"/>
<circle class="st2" cx="287.8" cy="549.62" r="10.42"/>
<circle class="st2" cx="127.22" cy="461.74" r="10.42"/>
<circle class="st2" cx="121.11" cy="291.18" r="10.42"/>
</svg>
