<?xml version="1.0" encoding="utf-8"?>
<!-- Generator: Adobe Illustrator 26.0.1, SVG Export Plug-In . SVG Version: 6.00 Build 0)  -->
<svg version="1.1" id="Layer_1" xmlns="http://www.w3.org/2000/svg" xmlns:xlink="http://www.w3.org/1999/xlink" x="0px" y="0px"
	 viewBox="0 0 612 792" style="enable-background:new 0 0 612 792;" xml:space="preserve">
<style type="text/css">
	.st0{fill:#FFFFFF;stroke:#000000;stroke-width:3;stroke-miterlimit:10;}
	.st1{fill:none;stroke:#000000;stroke-width:3;stroke-miterlimit:10;}
	.st2{stroke:#000000;stroke-width:3;stroke-miterlimit:10;}
</style>
<path class="st0" d="M297.71,149.77"/>
<line class="st1" x1="309.51" y1="200.77" x2="99.74" y2="357.4"/>
<line class="st1" x1="184.47" y1="536.85" x2="99.74" y2="357.4"/>
<line class="st1" x1="513.2" y1="360.27" x2="309.51" y2="200.77"/>
<line class="st1" x1="420" y1="533.54" x2="184.47" y2="536.85"/>
<line class="st1" x1="420" y1="533.54" x2="513.2" y2="360.27"/>
<line class="st1" x1="309.51" y1="200.77" x2="184.47" y2="536.85"/>
<line class="st1" x1="309.51" y1="200.77" x2="420" y2="533.54"/>
<line class="st1" x1="99.74" y1="357.4" x2="420" y2="533.54"/>
<line class="st1" x1="184.47" y1="536.85" x2="513.2" y2="360.27"/>
<line class="st1" x1="99.74" y1="357.4" x2="505.63" y2="364.34"/>
<ellipse class="st2" cx="311.21" cy="199.49" rx="12.27" ry="11.04"/>
<ellipse class="st2" cx="99.74" cy="357.4" rx="12.27" ry="11.04"/>
<ellipse class="st2" cx="184.47" cy="536.85" rx="12.27" ry="11.04"/>
<ellipse class="st2" cx="420" cy="533.54" rx="12.27" ry="11.04"/>
<ellipse class="st2" cx="512.09" cy="360.87" rx="12.27" ry="11.04"/>
</svg>
