<?xml version="1.0" encoding="utf-8"?>
<!-- Generator: Adobe Illustrator 26.0.1, SVG Export Plug-In . SVG Version: 6.00 Build 0)  -->
<svg version="1.1" id="Layer_1" xmlns="http://www.w3.org/2000/svg" xmlns:xlink="http://www.w3.org/1999/xlink" x="0px" y="0px"
	 viewBox="0 0 612 792" style="enable-background:new 0 0 612 792;" xml:space="preserve">
<style type="text/css">
	.st0{fill:#FFFFFF;stroke:#000000;stroke-width:3;stroke-miterlimit:10;}
	.st1{fill:none;stroke:#000000;stroke-width:3;stroke-miterlimit:10;}
	.st2{stroke:#000000;stroke-width:3;stroke-miterlimit:10;}
</style>
<polygon class="st0" points="298.65,209.46 158.6,276.9 124.01,428.44 220.93,549.97 376.37,549.97 473.28,428.44 438.7,276.9 "/>
<line class="st1" x1="220.93" y1="549.97" x2="298.65" y2="209.46"/>
<line class="st1" x1="376.37" y1="549.97" x2="298.65" y2="209.46"/>
<line class="st1" x1="124.01" y1="428.44" x2="298.65" y2="209.46"/>
<line class="st1" x1="473.28" y1="428.44" x2="298.65" y2="209.46"/>
<line class="st1" x1="158.6" y1="276.9" x2="220.93" y2="549.97"/>
<line class="st1" x1="376.37" y1="549.97" x2="158.6" y2="276.9"/>
<line class="st1" x1="473.28" y1="428.44" x2="158.6" y2="276.9"/>
<line class="st1" x1="438.7" y1="276.9" x2="158.6" y2="276.9"/>
<line class="st1" x1="124.01" y1="428.44" x2="376.37" y2="549.97"/>
<line class="st1" x1="473.28" y1="428.44" x2="124.01" y2="428.44"/>
<line class="st1" x1="438.7" y1="276.9" x2="124.01" y2="428.44"/>
<line class="st1" x1="220.93" y1="549.97" x2="438.7" y2="276.9"/>
<line class="st1" x1="376.37" y1="549.97" x2="438.7" y2="276.9"/>
<line class="st1" x1="225.44" y1="544.31" x2="473.28" y2="428.44"/>
<circle class="st2" cx="298.65" cy="209.46" r="8.65"/>
<circle class="st2" cx="438.7" cy="276.9" r="8.65"/>
<circle class="st2" cx="158.6" cy="276.9" r="8.65"/>
<circle class="st2" cx="124.01" cy="428.44" r="8.65"/>
<circle class="st2" cx="220.93" cy="549.97" r="8.65"/>
<circle class="st2" cx="473.28" cy="428.44" r="8.65"/>
<circle class="st2" cx="376.37" cy="549.97" r="8.65"/>
</svg>
