<?xml version="1.0" encoding="utf-8"?>
<!-- Generator: Adobe Illustrator 26.0.1, SVG Export Plug-In . SVG Version: 6.00 Build 0)  -->
<svg version="1.1" id="Layer_1" xmlns="http://www.w3.org/2000/svg" xmlns:xlink="http://www.w3.org/1999/xlink" x="0px" y="0px"
	 viewBox="0 0 595.28 841.89" style="enable-background:new 0 0 595.28 841.89;" xml:space="preserve">
<style type="text/css">
	.st0{stroke:#000000;stroke-width:3;stroke-miterlimit:10;}
	.st1{fill:none;stroke:#000000;stroke-width:3;stroke-miterlimit:10;}
</style>
<circle class="st0" cx="168.74" cy="263.37" r="11.25"/>
<circle class="st0" cx="407.12" cy="263.37" r="11.25"/>
<circle class="st0" cx="74.8" cy="409.7" r="11.25"/>
<circle class="st0" cx="168.74" cy="563.37" r="11.25"/>
<circle class="st0" cx="407.12" cy="563.37" r="11.25"/>
<circle class="st0" cx="508.91" cy="409.7" r="11.25"/>
<line class="st1" x1="74.8" y1="409.7" x2="168.74" y2="263.37"/>
<line class="st1" x1="168.74" y1="563.37" x2="74.8" y2="409.7"/>
<line class="st1" x1="407.12" y1="563.37" x2="168.74" y2="563.37"/>
<line class="st1" x1="168.74" y1="263.37" x2="407.12" y2="263.37"/>
<line class="st1" x1="407.12" y1="263.37" x2="508.91" y2="409.7"/>
<line class="st1" x1="400.62" y1="572.55" x2="508.91" y2="409.7"/>
<line class="st1" x1="168.74" y1="263.37" x2="508.91" y2="414.38"/>
<line class="st1" x1="407.12" y1="563.37" x2="168.74" y2="263.37"/>
<line class="st1" x1="168.74" y1="563.37" x2="168.74" y2="263.37"/>
<line class="st1" x1="74.8" y1="409.7" x2="407.12" y2="563.37"/>
<line class="st1" x1="515.71" y1="409.7" x2="74.8" y2="409.7"/>
<line class="st1" x1="407.12" y1="263.37" x2="74.8" y2="409.7"/>
<line class="st1" x1="168.74" y1="563.37" x2="508.91" y2="409.7"/>
<line class="st1" x1="407.12" y1="263.37" x2="168.74" y2="563.37"/>
<line class="st1" x1="407.12" y1="563.37" x2="407.12" y2="263.37"/>
</svg>
