<?xml version="1.0" encoding="utf-8"?>
<!-- Generator: Adobe Illustrator 26.0.1, SVG Export Plug-In . SVG Version: 6.00 Build 0)  -->
<svg version="1.1" id="Layer_1" xmlns="http://www.w3.org/2000/svg" xmlns:xlink="http://www.w3.org/1999/xlink" x="0px" y="0px"
	 viewBox="0 0 612 792" style="enable-background:new 0 0 612 792;" xml:space="preserve">
<style type="text/css">
	.st0{stroke:#000000;stroke-width:3;stroke-miterlimit:10;}
	.st1{fill:none;stroke:#000000;stroke-width:3;stroke-miterlimit:10;}
	.st2{font-family:'ArialMT';}
	.st3{font-size:12.1695px;}
	.st4{font-size:12.8456px;}
	.st5{font-size:10.9269px;}
</style>
<g>
	
		<ellipse transform="matrix(0.021 -0.9998 0.9998 0.021 96.0912 715.6792)" class="st0" cx="413.48" cy="308.77" rx="7.61" ry="10.79"/>
</g>
<g>
	
		<ellipse transform="matrix(0.021 -0.9998 0.9998 0.021 -126.8812 563.7266)" class="st0" cx="224.4" cy="346.65" rx="7.61" ry="10.79"/>
</g>
<g>
	
		<ellipse transform="matrix(0.021 -0.9998 0.9998 0.021 -202.8113 988.8716)" class="st0" cx="403.52" cy="597.99" rx="7.61" ry="10.79"/>
</g>
<g>
	
		<ellipse transform="matrix(0.021 -0.9998 0.9998 0.021 -106.8631 898.7837)" class="st0" cx="405.5" cy="503.96" rx="7.61" ry="10.79"/>
</g>
<g>
	
		<ellipse transform="matrix(0.021 -0.9998 0.9998 0.021 -267.9207 696.1517)" class="st0" cx="221.5" cy="484.88" rx="7.61" ry="10.79"/>
</g>
<g>
	
		<ellipse transform="matrix(0.021 -0.9998 0.9998 0.021 -11.4989 816.6979)" class="st0" cx="411.26" cy="414.22" rx="7.61" ry="10.79"/>
</g>
<g>
	
		<ellipse transform="matrix(0.021 -0.9998 0.9998 0.021 182.7055 647.6043)" class="st0" cx="422.03" cy="230.51" rx="7.61" ry="10.79"/>
</g>
<line class="st1" x1="224.4" y1="346.65" x2="422.03" y2="230.51"/>
<line class="st1" x1="413.48" y1="308.77" x2="224.4" y2="346.65"/>
<line class="st1" x1="411.26" y1="414.22" x2="224.4" y2="346.65"/>
<line class="st1" x1="405.5" y1="503.96" x2="224.4" y2="346.65"/>
<line class="st1" x1="403.52" y1="597.99" x2="224.4" y2="346.65"/>
<line class="st1" x1="221.5" y1="484.88" x2="422.03" y2="230.51"/>
<line class="st1" x1="413.48" y1="308.77" x2="221.5" y2="484.88"/>
<line class="st1" x1="411.26" y1="414.22" x2="221.5" y2="484.88"/>
<line class="st1" x1="405.5" y1="503.96" x2="221.5" y2="484.88"/>
<line class="st1" x1="403.52" y1="597.99" x2="221.5" y2="484.88"/>
<text transform="matrix(1.4357 0.0301 -0.021 0.9998 215.185 318.135)" class="st2 st3">1</text>
<text transform="matrix(1.4357 0.0301 -0.021 0.9998 211.1252 469.7174)" class="st2 st4">2</text>
<text transform="matrix(1.4357 0.0301 -0.021 0.9998 425.3696 204.8855)" class="st2 st4">3</text>
<text transform="matrix(1.8908 0.0397 -0.021 0.9998 409.8974 294.3031)" class="st2 st5">4</text>
<text transform="matrix(1.4357 0.0301 -0.021 0.9998 408.4099 401.9909)" class="st2 st4">5</text>
<text transform="matrix(1.4357 0.0301 -0.021 0.9998 405.8148 488.7456)" class="st2 st4">6</text>
<text transform="matrix(1.4357 0.0301 -0.021 0.9998 403.7586 586.6761)" class="st2 st4">7</text>
</svg>
