<?xml version="1.0" encoding="utf-8"?>
<!-- Generator: Adobe Illustrator 26.0.1, SVG Export Plug-In . SVG Version: 6.00 Build 0)  -->
<svg version="1.1" id="Layer_1" xmlns="http://www.w3.org/2000/svg" xmlns:xlink="http://www.w3.org/1999/xlink" x="0px" y="0px"
	 viewBox="0 0 612 792" style="enable-background:new 0 0 612 792;" xml:space="preserve">
<style type="text/css">
	.st0{fill:#FFFFFF;stroke:#000000;stroke-width:3;stroke-miterlimit:10;}
	.st1{fill:none;stroke:#000000;stroke-width:3;stroke-miterlimit:10;}
	.st2{stroke:#000000;stroke-width:3;stroke-miterlimit:10;}
</style>
<polygon class="st0" points="400.19,203.92 233.21,203.92 115.14,323.06 115.14,491.55 233.21,610.69 400.19,610.69 518.26,491.55 
	518.26,323.06 "/>
<line class="st1" x1="233.21" y1="203.92" x2="233.21" y2="610.69"/>
<line class="st1" x1="400.19" y1="203.92" x2="400.19" y2="610.69"/>
<line class="st1" x1="518.26" y1="323.06" x2="116.24" y2="325.74"/>
<line class="st1" x1="518.26" y1="491.55" x2="117.33" y2="490.64"/>
<line class="st1" x1="518.26" y1="323.06" x2="117.33" y2="490.64"/>
<line class="st1" x1="116.24" y1="325.74" x2="518.26" y2="491.55"/>
<line class="st1" x1="233.21" y1="610.69" x2="400.19" y2="203.92"/>
<line class="st1" x1="400.19" y1="610.69" x2="233.21" y2="203.92"/>
<circle class="st2" cx="233.21" cy="203.92" r="8.54"/>
<circle class="st2" cx="117.96" cy="325.73" r="8.54"/>
<circle class="st2" cx="117.96" cy="491.1" r="8.54"/>
<circle class="st2" cx="234.29" cy="609.78" r="8.54"/>
<circle class="st2" cx="399.81" cy="609.78" r="8.54"/>
<circle class="st2" cx="517.15" cy="491.1" r="8.54"/>
<circle class="st2" cx="399.81" cy="204.83" r="8.54"/>
<circle class="st2" cx="517.15" cy="324.4" r="8.54"/>
</svg>
