<?xml version="1.0" encoding="utf-8"?>
<!-- Generator: Adobe Illustrator 26.0.1, SVG Export Plug-In . SVG Version: 6.00 Build 0)  -->
<svg version="1.1" id="Layer_1" xmlns="http://www.w3.org/2000/svg" xmlns:xlink="http://www.w3.org/1999/xlink" x="0px" y="0px"
	 viewBox="0 0 612 792" style="enable-background:new 0 0 612 792;" xml:space="preserve">
<style type="text/css">
	.st0{fill:#FFFFFF;stroke:#000000;stroke-width:3;stroke-miterlimit:10;}
	.st1{fill:none;stroke:#000000;stroke-width:3;stroke-miterlimit:10;}
	.st2{stroke:#000000;stroke-width:3;stroke-miterlimit:10;}
</style>
<polygon class="st0" points="365.16,238.68 228.06,238.68 131.12,335.62 131.12,472.72 228.06,569.66 365.16,569.66 462.1,472.72 
	462.1,335.62 "/>
<line class="st1" x1="131.12" y1="472.72" x2="228.06" y2="238.68"/>
<line class="st1" x1="365.16" y1="238.68" x2="131.12" y2="472.72"/>
<line class="st1" x1="462.1" y1="335.62" x2="131.12" y2="472.72"/>
<line class="st1" x1="462.1" y1="472.72" x2="131.12" y2="472.72"/>
<line class="st1" x1="365.16" y1="569.66" x2="131.12" y2="472.72"/>
<line class="st1" x1="228.06" y1="569.66" x2="131.12" y2="335.62"/>
<line class="st1" x1="228.06" y1="238.68" x2="228.06" y2="569.66"/>
<line class="st1" x1="365.16" y1="238.68" x2="228.06" y2="569.66"/>
<line class="st1" x1="462.1" y1="335.62" x2="228.06" y2="569.66"/>
<line class="st1" x1="462.1" y1="472.72" x2="228.06" y2="569.66"/>
<line class="st1" x1="365.16" y1="569.66" x2="129.82" y2="341.83"/>
<line class="st1" x1="228.06" y1="238.68" x2="365.16" y2="569.66"/>
<line class="st1" x1="360.2" y1="243.64" x2="365.16" y2="569.66"/>
<line class="st1" x1="462.1" y1="335.62" x2="365.16" y2="569.66"/>
<line class="st1" x1="462.1" y1="472.72" x2="129.82" y2="341.83"/>
<line class="st1" x1="230.92" y1="245.59" x2="462.1" y2="472.72"/>
<line class="st1" x1="365.16" y1="238.68" x2="462.1" y2="472.72"/>
<line class="st1" x1="462.1" y1="335.62" x2="230.92" y2="245.59"/>
<line class="st1" x1="130.47" y1="341.82" x2="462.75" y2="335.61"/>
<line class="st1" x1="130.47" y1="341.82" x2="365.16" y2="238.68"/>
<circle class="st2" cx="228.06" cy="238.68" r="8.21"/>
<circle class="st2" cx="362.68" cy="238.68" r="8.21"/>
<circle class="st2" cx="457" cy="333.63" r="8.21"/>
<circle class="st2" cx="462.1" cy="472.72" r="8.21"/>
<circle class="st2" cx="133.19" cy="340.62" r="8.21"/>
<circle class="st2" cx="131.12" cy="472.72" r="8.21"/>
<circle class="st2" cx="228.06" cy="569.66" r="8.21"/>
<circle class="st2" cx="362.68" cy="568.63" r="8.21"/>
</svg>
