<?xml version="1.0" encoding="utf-8"?>
<!-- Generator: Adobe Illustrator 26.0.1, SVG Export Plug-In . SVG Version: 6.00 Build 0)  -->
<svg version="1.1" id="Layer_1" xmlns="http://www.w3.org/2000/svg" xmlns:xlink="http://www.w3.org/1999/xlink" x="0px" y="0px"
	 viewBox="0 0 612 792" style="enable-background:new 0 0 612 792;" xml:space="preserve">
<style type="text/css">
	.st0{stroke:#000000;stroke-width:3;stroke-miterlimit:10;}
	.st1{fill:none;stroke:#000000;stroke-width:3;stroke-miterlimit:10;}
	.st2{font-family:'MyriadPro-Regular';}
	.st3{font-size:18px;}
</style>
<g>
	<ellipse class="st0" cx="325.06" cy="296.38" rx="11.11" ry="11.25"/>
</g>
<g>
	<ellipse class="st0" cx="150" cy="296.38" rx="11.11" ry="11.25"/>
</g>
<g>
	<ellipse class="st0" cx="445.02" cy="512.12" rx="11.11" ry="11.25"/>
</g>
<g>
	<ellipse class="st0" cx="251.5" cy="512.12" rx="11.11" ry="11.25"/>
</g>
<g>
	<ellipse class="st0" cx="57.98" cy="512.12" rx="11.11" ry="11.25"/>
</g>
<g>
	<ellipse class="st0" cx="485.79" cy="296.38" rx="11.11" ry="11.25"/>
</g>
<line class="st1" x1="57.98" y1="512.12" x2="150" y2="296.38"/>
<line class="st1" x1="251.5" y1="512.12" x2="150" y2="296.38"/>
<line class="st1" x1="445.02" y1="512.12" x2="156" y2="296.38"/>
<line class="st1" x1="57.98" y1="512.12" x2="325.06" y2="296.38"/>
<line class="st1" x1="251.5" y1="512.12" x2="325.06" y2="296.38"/>
<line class="st1" x1="445.02" y1="512.12" x2="325.06" y2="296.38"/>
<line class="st1" x1="485.79" y1="296.38" x2="445.02" y2="512.12"/>
<line class="st1" x1="251.5" y1="512.12" x2="485.79" y2="296.38"/>
<line class="st1" x1="57.98" y1="512.12" x2="485.79" y2="296.38"/>
<text transform="matrix(1.1636 0 0 1 150 276)" class="st2 st3">1</text>
<text transform="matrix(1 0 0 1 321.2803 276)" class="st2 st3">2</text>
<text transform="matrix(1 0 0 1 480.0645 279.3198)" class="st2 st3">3</text>
<text transform="matrix(1 0 0 1 51.2925 540)" class="st2 st3">4</text>
<text transform="matrix(1 0 0 1 251.5 540)" class="st2 st3">5</text>
<text transform="matrix(1 0 0 1 445.0175 540)" class="st2 st3">6</text>
</svg>
