<?xml version="1.0" encoding="utf-8"?>
<!-- Generator: Adobe Illustrator 26.0.1, SVG Export Plug-In . SVG Version: 6.00 Build 0)  -->
<svg version="1.1" id="Layer_1" xmlns="http://www.w3.org/2000/svg" xmlns:xlink="http://www.w3.org/1999/xlink" x="0px" y="0px"
	 viewBox="0 0 612 792" style="enable-background:new 0 0 612 792;" xml:space="preserve">
<style type="text/css">
	.st0{fill:#FFFFFF;stroke:#000000;stroke-width:3;stroke-miterlimit:10;}
	.st1{fill:none;stroke:#000000;stroke-width:3;stroke-miterlimit:10;}
	.st2{stroke:#000000;stroke-width:3;stroke-miterlimit:10;}
</style>
<polygon class="st0" points="286.01,211.21 170.87,253.12 109.6,359.23 130.88,479.9 224.74,558.66 347.27,558.66 441.13,479.9 
	462.41,359.23 401.15,253.12 "/>
<line class="st1" x1="109.6" y1="359.23" x2="286.01" y2="211.21"/>
<line class="st1" x1="401.15" y1="253.12" x2="109.6" y2="359.23"/>
<line class="st1" x1="462.41" y1="359.23" x2="109.6" y2="359.23"/>
<line class="st1" x1="441.13" y1="479.9" x2="109.6" y2="359.23"/>
<line class="st1" x1="347.27" y1="558.66" x2="109.6" y2="359.23"/>
<line class="st1" x1="224.74" y1="558.66" x2="109.6" y2="359.23"/>
<line class="st1" x1="170.87" y1="253.12" x2="130.88" y2="479.9"/>
<line class="st1" x1="286.01" y1="211.21" x2="130.88" y2="479.9"/>
<line class="st1" x1="401.15" y1="253.12" x2="130.88" y2="479.9"/>
<line class="st1" x1="462.41" y1="359.23" x2="130.88" y2="479.9"/>
<line class="st1" x1="441.13" y1="479.9" x2="130.88" y2="479.9"/>
<line class="st1" x1="347.27" y1="558.66" x2="136.66" y2="479.9"/>
<line class="st1" x1="224.74" y1="558.66" x2="170.87" y2="253.12"/>
<line class="st1" x1="286.01" y1="211.21" x2="224.74" y2="558.66"/>
<line class="st1" x1="401.15" y1="253.12" x2="224.74" y2="558.66"/>
<line class="st1" x1="462.41" y1="359.23" x2="224.74" y2="558.66"/>
<line class="st1" x1="441.13" y1="479.9" x2="224.74" y2="558.66"/>
<line class="st1" x1="347.27" y1="558.66" x2="170.87" y2="253.12"/>
<line class="st1" x1="286.01" y1="211.21" x2="347.27" y2="558.66"/>
<line class="st1" x1="401.15" y1="253.12" x2="347.27" y2="558.66"/>
<line class="st1" x1="462.41" y1="359.23" x2="347.27" y2="558.66"/>
<line class="st1" x1="286.01" y1="211.21" x2="462.41" y2="359.23"/>
<line class="st1" x1="441.13" y1="479.9" x2="286.01" y2="211.21"/>
<line class="st1" x1="170.87" y1="253.12" x2="401.15" y2="253.12"/>
<line class="st1" x1="441.13" y1="479.9" x2="401.15" y2="253.12"/>
<line class="st1" x1="170.87" y1="253.12" x2="462.41" y2="359.23"/>
<line class="st1" x1="441.13" y1="479.9" x2="170.87" y2="253.12"/>
<circle class="st2" cx="172.78" cy="254.1" r="8.73"/>
<circle class="st2" cx="286.01" cy="211.21" r="8.73"/>
<circle class="st2" cx="109.6" cy="359.23" r="8.73"/>
<circle class="st2" cx="133.81" cy="478.83" r="8.73"/>
<circle class="st2" cx="228.38" cy="555.61" r="8.73"/>
<circle class="st2" cx="346.73" cy="555.61" r="8.73"/>
<circle class="st2" cx="438.21" cy="478.83" r="8.73"/>
<circle class="st2" cx="462.41" cy="359.23" r="8.73"/>
<circle class="st2" cx="401.32" cy="254.1" r="8.73"/>
</svg>
