<?xml version="1.0" encoding="utf-8"?>
<!-- Generator: Adobe Illustrator 26.0.1, SVG Export Plug-In . SVG Version: 6.00 Build 0)  -->
<svg version="1.1" id="Layer_1" xmlns="http://www.w3.org/2000/svg" xmlns:xlink="http://www.w3.org/1999/xlink" x="0px" y="0px"
	 viewBox="0 0 612 792" style="enable-background:new 0 0 612 792;" xml:space="preserve">
<style type="text/css">
	.st0{stroke:#000000;stroke-width:3;stroke-miterlimit:10;}
	.st1{fill:none;stroke:#000000;stroke-width:3;stroke-miterlimit:10;}
	.st2{font-family:'MyriadPro-Regular';}
	.st3{font-size:18px;}
	.st4{font-size:20.5664px;}
</style>
<g>
	<ellipse class="st0" cx="540.93" cy="467.82" rx="11.25" ry="11.11"/>
</g>
<g>
	<ellipse class="st0" cx="289.93" cy="277.93" rx="11.25" ry="11.11"/>
</g>
<g>
	<ellipse class="st0" cx="29.18" cy="467.82" rx="11.25" ry="11.11"/>
</g>
<g>
	<ellipse class="st0" cx="193.93" cy="467.82" rx="11.25" ry="11.11"/>
</g>
<g>
	<ellipse class="st0" cx="118.55" cy="277.93" rx="11.25" ry="11.11"/>
</g>
<g>
	<ellipse class="st0" cx="377.93" cy="467.82" rx="11.25" ry="11.11"/>
</g>
<g>
	<ellipse class="st0" cx="434.68" cy="277.93" rx="11.25" ry="11.11"/>
</g>
<line class="st1" x1="434.68" y1="277.93" x2="540.93" y2="467.82"/>
<line class="st1" x1="377.93" y1="467.82" x2="434.68" y2="277.93"/>
<line class="st1" x1="193.93" y1="461.82" x2="434.68" y2="277.93"/>
<line class="st1" x1="29.18" y1="472.82" x2="434.68" y2="277.93"/>
<line class="st1" x1="540.93" y1="467.82" x2="289.93" y2="277.93"/>
<line class="st1" x1="377.93" y1="467.82" x2="289.93" y2="277.93"/>
<line class="st1" x1="193.93" y1="467.82" x2="289.93" y2="277.93"/>
<line class="st1" x1="29.18" y1="467.82" x2="289.93" y2="277.93"/>
<line class="st1" x1="540.93" y1="467.82" x2="118.55" y2="277.93"/>
<line class="st1" x1="377.93" y1="467.82" x2="118.55" y2="277.93"/>
<line class="st1" x1="193.93" y1="467.82" x2="118.55" y2="277.93"/>
<line class="st1" x1="29.18" y1="467.82" x2="118.55" y2="277.93"/>
<text transform="matrix(1 0 0 1 110.7778 259)" class="st2 st3">1</text>
<text transform="matrix(1 0 0 1 288.2798 259)" class="st2 st3">2</text>
<text transform="matrix(1 0 0 1 434.6787 259)" class="st2 st3">3</text>
<text transform="matrix(1 0 0 1 17.7979 495.6865)" class="st2 st3">4</text>
<text transform="matrix(1 0 0 1 193 499)" class="st2 st3">5</text>
<text transform="matrix(1 0 0 1 381.6123 499)" class="st2 st3">6</text>
<text transform="matrix(1.115 0 0 1 540.9288 501.1475)" class="st2 st4">7</text>
</svg>
