<?xml version="1.0" encoding="utf-8"?>
<!-- Generator: Adobe Illustrator 26.0.1, SVG Export Plug-In . SVG Version: 6.00 Build 0)  -->
<svg version="1.1" id="Layer_1" xmlns="http://www.w3.org/2000/svg" xmlns:xlink="http://www.w3.org/1999/xlink" x="0px" y="0px"
	 viewBox="0 0 612 792" style="enable-background:new 0 0 612 792;" xml:space="preserve">
<style type="text/css">
	.st0{fill:#FFFFFF;stroke:#000000;stroke-width:3;stroke-miterlimit:10;}
	.st1{stroke:#000000;stroke-width:3;stroke-miterlimit:10;}
	.st2{font-family:'MyriadPro-Regular';}
	.st3{font-size:24px;}
</style>
<polygon class="st0" points="385.63,225.69 235.78,225.69 129.81,329.75 129.81,476.91 235.78,580.97 385.63,580.97 491.59,476.91 
	491.59,329.75 "/>
<circle class="st1" cx="234.46" cy="225.69" r="9.7"/>
<circle class="st1" cx="129.81" cy="329.68" r="10.89"/>
<circle class="st1" cx="129.81" cy="476.43" r="10.89"/>
<circle class="st1" cx="234.46" cy="580.97" r="10.89"/>
<circle class="st1" cx="382.5" cy="580.97" r="10.89"/>
<circle class="st1" cx="386.39" cy="225.69" r="10.89"/>
<circle class="st1" cx="491.59" cy="329.68" r="10.89"/>
<circle class="st1" cx="491.59" cy="476.43" r="10.89"/>
<text transform="matrix(1 0 0 1 229.0857 205.6494)" class="st2 st3">1</text>
<text transform="matrix(1 0 0 1 386.3886 205.6494)" class="st2 st3">2</text>
<text transform="matrix(1 0 0 1 510.3092 329.6753)" class="st2 st3">3</text>
<text transform="matrix(1 0 0 1 511.317 487.3165)" class="st2 st3">4</text>
<text transform="matrix(1 0 0 1 382.5007 612.1274)" class="st2 st3">5</text>
<text transform="matrix(1 0 0 1 224.7605 612.3911)" class="st2 st3">6</text>
<text transform="matrix(1 0 0 1 100.6827 487.4526)" class="st2 st3">7</text>
<text transform="matrix(1 0 0 1 102.0502 329.6753)" class="st2 st3">8</text>
</svg>
