<?xml version="1.0" encoding="utf-8"?>
<!-- Generator: Adobe Illustrator 26.0.1, SVG Export Plug-In . SVG Version: 6.00 Build 0)  -->
<svg version="1.1" id="Layer_1" xmlns="http://www.w3.org/2000/svg" xmlns:xlink="http://www.w3.org/1999/xlink" x="0px" y="0px"
	 viewBox="0 0 612 792" style="enable-background:new 0 0 612 792;" xml:space="preserve">
<style type="text/css">
	.st0{fill:#FFFFFF;stroke:#000000;stroke-width:3;stroke-miterlimit:10;}
	.st1{stroke:#000000;stroke-width:3;stroke-miterlimit:10;}
	.st2{font-family:'MyriadPro-Regular';}
	.st3{font-size:22.3536px;}
</style>
<polygon class="st0" points="301.52,233.02 157.69,299.5 122.16,448.89 221.7,568.69 381.34,568.69 480.88,448.89 445.36,299.5 "/>
<ellipse class="st1" cx="301.52" cy="233.02" rx="10.11" ry="10.14"/>
<ellipse class="st1" cx="444.71" cy="298.62" rx="10.11" ry="10.14"/>
<ellipse class="st1" cx="156.56" cy="298.62" rx="10.11" ry="10.14"/>
<ellipse class="st1" cx="480.88" cy="450.75" rx="10.11" ry="10.14"/>
<ellipse class="st1" cx="122.16" cy="450.75" rx="10.11" ry="10.14"/>
<ellipse class="st1" cx="220.46" cy="568.69" rx="10.11" ry="10.14"/>
<ellipse class="st1" cx="382.02" cy="568.69" rx="10.11" ry="10.14"/>
<text transform="matrix(0.9967 0 0 1 298.4194 215.9287)" class="st2 st3">1</text>
<text transform="matrix(0.9967 0 0 1 460.8911 298.6206)" class="st2 st3">2</text>
<text transform="matrix(0.9967 0 0 1 499.3013 460.8916)" class="st2 st3">3</text>
<text transform="matrix(0.9967 0 0 1 384.7627 601.3467)" class="st2 st3">4</text>
<text transform="matrix(0.9967 0 0 1 220.4629 601.3467)" class="st2 st3">5</text>
<text transform="matrix(0.9967 0 0 1 94.1729 460.8916)" class="st2 st3">6</text>
<text transform="matrix(0.9967 0 0 1 140.9741 283.8447)" class="st2 st3">7</text>
</svg>
