<?xml version="1.0" encoding="utf-8"?>
<!-- Generator: Adobe Illustrator 26.0.1, SVG Export Plug-In . SVG Version: 6.00 Build 0)  -->
<svg version="1.1" id="Layer_1" xmlns="http://www.w3.org/2000/svg" xmlns:xlink="http://www.w3.org/1999/xlink" x="0px" y="0px"
	 viewBox="0 0 612 792" style="enable-background:new 0 0 612 792;" xml:space="preserve">
<style type="text/css">
	.st0{fill:#FFFFFF;stroke:#000000;stroke-width:3;stroke-miterlimit:10;}
	.st1{stroke:#000000;stroke-width:3;stroke-miterlimit:10;}
	.st2{font-family:'MyriadPro-Regular';}
	.st3{font-size:24px;}
</style>
<polygon class="st0" points="299.97,208.26 173.14,251.78 105.65,361.97 129.09,487.28 232.49,569.07 367.46,569.07 470.86,487.28 
	494.3,361.97 426.81,251.78 "/>
<circle class="st1" cx="170.97" cy="257.49" r="9.15"/>
<circle class="st1" cx="105.65" cy="358.03" r="9.15"/>
<circle class="st1" cx="129.36" cy="485.3" r="9.15"/>
<circle class="st1" cx="231.96" cy="569.07" r="9.15"/>
<circle class="st1" cx="363.13" cy="569.07" r="9.15"/>
<circle class="st1" cx="472.22" cy="485.3" r="9.15"/>
<circle class="st1" cx="494.3" cy="358.03" r="9.15"/>
<circle class="st1" cx="425.46" cy="248.34" r="9.15"/>
<circle class="st1" cx="299.97" cy="208.26" r="9.15"/>
<text transform="matrix(1 0 0 1 290.8289 193.4639)" class="st2 st3">1</text>
<text transform="matrix(1 0 0 1 445.6498 248.3431)" class="st2 st3">2</text>
<text transform="matrix(1 0 0 1 510.4158 368.7881)" class="st2 st3">3</text>
<text transform="matrix(1 0 0 1 485.1505 499.6476)" class="st2 st3">4</text>
<text transform="matrix(1 0 0 1 372.272 592.708)" class="st2 st3">5</text>
<text transform="matrix(1 0 0 1 231.958 598.5357)" class="st2 st3">6</text>
<text transform="matrix(1 0 0 1 105.6527 511.9102)" class="st2 st3">7</text>
<text transform="matrix(1 0 0 1 74.5506 358.9419)" class="st2 st3">8</text>
<text transform="matrix(1 0 0 1 148.4436 248.3431)" class="st2 st3">9</text>
</svg>
