<?xml version="1.0" encoding="utf-8"?>
<!-- Generator: Adobe Illustrator 26.0.1, SVG Export Plug-In . SVG Version: 6.00 Build 0)  -->
<svg version="1.1" id="Layer_1" xmlns="http://www.w3.org/2000/svg" xmlns:xlink="http://www.w3.org/1999/xlink" x="0px" y="0px"
	 viewBox="0 0 612 792" style="enable-background:new 0 0 612 792;" xml:space="preserve">
<style type="text/css">
	.st0{fill:none;stroke:#000000;stroke-width:3;stroke-miterlimit:10;}
	.st1{stroke:#000000;stroke-width:3;stroke-miterlimit:10;}
</style>
<rect x="118.5" y="283.6" transform="matrix(1 -5.217658e-03 5.217658e-03 1 -2.0165 1.1636)" class="st0" width="206.9" height="206.9"/>
<polygon class="st0" points="325,490.3 327.8,282.2 506.6,388.7 "/>
<g>
	
		<ellipse transform="matrix(0.5099 -0.8603 0.8603 0.5099 -90.9169 624.8293)" class="st1" cx="502.9" cy="392.2" rx="9.8" ry="10.1"/>
</g>
<g>
	
		<ellipse transform="matrix(0.5099 -0.8603 0.8603 0.5099 -86.7623 420.3615)" class="st1" cx="325.5" cy="286.3" rx="9.8" ry="10.1"/>
</g>
<g>
	
		<ellipse transform="matrix(0.5099 -0.8603 0.8603 0.5099 -261.5054 519.9219)" class="st1" cx="325.5" cy="489.5" rx="9.8" ry="10.1"/>
</g>
<g>
	
		<ellipse transform="matrix(0.5099 -0.8603 0.8603 0.5099 -363.6374 342.8752)" class="st1" cx="119.1" cy="490.6" rx="9.8" ry="10.1"/>
</g>
<g>
	
		<ellipse transform="matrix(0.5099 -0.8603 0.8603 0.5099 -187.9437 242.7732)" class="st1" cx="119.1" cy="286.3" rx="9.8" ry="10.1"/>
</g>
</svg>
