<?xml version="1.0" encoding="utf-8"?>
<!-- Generator: Adobe Illustrator 26.0.1, SVG Export Plug-In . SVG Version: 6.00 Build 0)  -->
<svg version="1.1" id="Layer_1" xmlns="http://www.w3.org/2000/svg" xmlns:xlink="http://www.w3.org/1999/xlink" x="0px" y="0px"
	 viewBox="0 0 612 792" style="enable-background:new 0 0 612 792;" xml:space="preserve">
<style type="text/css">
	.st0{fill:#FFFFFF;stroke:#000000;stroke-width:3;stroke-miterlimit:10;}
	.st1{fill:none;stroke:#000000;stroke-width:3;stroke-miterlimit:10;}
	.st2{stroke:#000000;stroke-width:3;stroke-miterlimit:10;}
	.st3{font-family:'MyriadPro-Regular';}
	.st4{font-size:21.6571px;}
	.st5{font-size:25.2666px;}
</style>
<polygon class="st0" points="544.21,452.78 362.44,343.53 362.44,562.03 "/>
<line class="st1" x1="105.08" y1="343.53" x2="362.44" y2="343.53"/>
<line class="st1" x1="105.08" y1="343.53" x2="362.44" y2="562.03"/>
<line class="st1" x1="98.69" y1="562.03" x2="362.44" y2="562.03"/>
<line class="st1" x1="98.69" y1="562.03" x2="362.44" y2="343.53"/>
<ellipse class="st2" cx="105.08" cy="343.53" rx="11.58" ry="11.33"/>
<ellipse class="st2" cx="105.08" cy="562.03" rx="11.58" ry="11.33"/>
<ellipse class="st2" cx="360.34" cy="345.26" rx="11.58" ry="11.33"/>
<ellipse class="st2" cx="360.34" cy="560.24" rx="11.58" ry="11.33"/>
<ellipse class="st2" cx="537.82" cy="452.78" rx="11.58" ry="11.33"/>
<text transform="matrix(1.0219 0 0 1 212.9077 332.1968)" class="st3 st4">e1</text>
<text transform="matrix(1.0219 0 0 1 449.7139 391.2515)" class="st3 st4">e2</text>
<text transform="matrix(1.0219 0 0 1 450.5537 530.5215)" class="st3 st4">e3</text>
<text transform="matrix(1.0219 0 0 1 218.4536 580.7754)" class="st3 st4">e4</text>
<text transform="matrix(1.0219 0 0 1 282.2798 488.0938)" class="st3 st4">e5</text>
<text transform="matrix(1.0219 0 0 1 371.9141 452.7734)" class="st3 st4">e6</text>
<text transform="matrix(1.0219 0 0 1 260.856 405.3018)" class="st3 st4">e7</text>
<text transform="matrix(1.0219 0 0 1 88.2593 325.3169)" class="st3 st5">A</text>
<text transform="matrix(1.0219 0 0 1 362.4346 325.3169)" class="st3 st5">B</text>
<text transform="matrix(1.0219 0 0 1 558.998 464.1025)" class="st3 st5">C</text>
<text transform="matrix(1.0219 0 0 1 360.3379 596.4004)" class="st3 st5">D</text>
<text transform="matrix(1.0219 0 0 1 93.5005 596.5527)" class="st3 st5">E</text>
</svg>
