<?xml version="1.0" encoding="utf-8"?>
<!-- Generator: Adobe Illustrator 26.0.1, SVG Export Plug-In . SVG Version: 6.00 Build 0)  -->
<svg version="1.1" id="Layer_1" xmlns="http://www.w3.org/2000/svg" xmlns:xlink="http://www.w3.org/1999/xlink" x="0px" y="0px"
	 viewBox="0 0 612 792" style="enable-background:new 0 0 612 792;" xml:space="preserve">
<style type="text/css">
	.st0{fill:#FFFFFF;stroke:#000000;stroke-width:3;stroke-miterlimit:10;}
	.st1{stroke:#000000;stroke-width:3;stroke-miterlimit:10;}
	.st2{font-family:'MyriadPro-Regular';}
	.st3{font-size:21px;}
	.st4{font-size:18px;}
</style>
<polygon class="st0" points="160.99,326.25 20.73,529.33 301.25,529.33 "/>
<polygon class="st0" points="444.96,326.25 306,529.33 583.92,529.33 "/>
<circle class="st1" cx="160.99" cy="326.25" r="9.42"/>
<circle class="st1" cx="20.73" cy="529.33" r="9.42"/>
<circle class="st1" cx="444.96" cy="326.25" r="9.42"/>
<circle class="st1" cx="301.25" cy="529.33" r="9.42"/>
<circle class="st1" cx="581.77" cy="529.33" r="9.42"/>
<text transform="matrix(1 0 0 1 151.5714 308.749)" class="st2 st3">A</text>
<circle class="st1" cx="160.99" cy="326.25" r="9.42"/>
<text transform="matrix(1 0 0 1 437.7412 308.749)" class="st2 st3">B</text>
<text transform="matrix(1 0 0 1 583.9221 554.8182)" class="st2 st3">C</text>
<text transform="matrix(1 0 0 1 295.0503 561.3115)" class="st2 st3">D</text>
<text transform="matrix(1 0 0 1 10.3379 561.3115)" class="st2 st3">E</text>
<text transform="matrix(1 0 0 1 226.8725 413.2598)" class="st2 st4">e1</text>
<text transform="matrix(1 0 0 1 356.207 413.2598)" class="st2 st4">e2</text>
<text transform="matrix(1 0 0 1 518.9024 413.4395)" class="st2 st4">e3</text>
<text transform="matrix(1 0 0 1 435.5454 545.9258)" class="st2 st4">e4</text>
<text transform="matrix(1 0 0 1 144.3231 547.1572)" class="st2 st4">e5</text>
<text transform="matrix(1 0 0 1 69.5542 413.2598)" class="st2 st4">e6</text>
</svg>
