<?xml version="1.0" encoding="utf-8"?>
<!-- Generator: Adobe Illustrator 26.0.1, SVG Export Plug-In . SVG Version: 6.00 Build 0)  -->
<svg version="1.1" id="Layer_1" xmlns="http://www.w3.org/2000/svg" xmlns:xlink="http://www.w3.org/1999/xlink" x="0px" y="0px"
	 viewBox="0 0 612 792" style="enable-background:new 0 0 612 792;" xml:space="preserve">
<style type="text/css">
	.st0{fill:#FFFFFF;stroke:#000000;stroke-width:3;stroke-miterlimit:10;}
	.st1{stroke:#000000;stroke-width:3;stroke-miterlimit:10;}
	.st2{font-family:'MyriadPro-Regular';}
	.st3{font-size:23.7163px;}
	.st4{font-size:20.3283px;}
</style>
<rect x="80.02" y="327.28" class="st0" width="229.42" height="216.7"/>
<polygon class="st0" points="542.48,542.31 534.63,326.36 313.74,544.9 "/>
<ellipse class="st1" cx="80.02" cy="327.28" rx="11.55" ry="10.91"/>
<ellipse class="st1" cx="306.24" cy="327.28" rx="11.55" ry="10.91"/>
<ellipse class="st1" cx="309.44" cy="543.98" rx="11.55" ry="10.91"/>
<ellipse class="st1" cx="80.02" cy="543.98" rx="11.55" ry="10.91"/>
<ellipse class="st1" cx="532.46" cy="327.28" rx="11.55" ry="10.91"/>
<ellipse class="st1" cx="538.86" cy="543.98" rx="11.55" ry="10.91"/>
<text transform="matrix(1.0587 0 0 1 68.4727 308.4351)" class="st2 st3">A</text>
<text transform="matrix(1.0587 0 0 1 297.8926 308.436)" class="st2 st3">B</text>
<text transform="matrix(1.0587 0 0 1 299.7998 574.625)" class="st2 st3">C </text>
<text transform="matrix(1.0587 0 0 1 520.9092 308.4351)" class="st2 st3">D          </text>
<text transform="matrix(1.0587 0 0 1 514.4502 574.8633)" class="st2 st3">    E</text>
<text transform="matrix(1.0587 0 0 1 69.0996 574.8633)" class="st2 st3">F</text>
<ellipse class="st1" cx="80.02" cy="327.28" rx="11.55" ry="10.91"/>
<ellipse class="st1" cx="80.02" cy="327.28" rx="11.55" ry="10.91"/>
<ellipse class="st1" cx="80.02" cy="327.28" rx="11.55" ry="10.91"/>
<text transform="matrix(1.0587 0 0 1 177.3457 316.3716)" class="st2 st4">e1</text>
<text transform="matrix(1.0587 0 0 1 280.2461 430.8643)" class="st2 st4">e2</text>
<text transform="matrix(1.0587 0 0 1 416.4287 417.4287)" class="st2 st4">e3</text>
<text transform="matrix(1.0587 0 0 1 549.1494 435.2646)" class="st2 st4">e4</text>
<text transform="matrix(1.0587 0 0 1 417.2471 564.3418)" class="st2 st4">e5</text>
<text transform="matrix(1.0587 0 0 1 191.2803 564.3418)" class="st2 st4">e6</text>
<text transform="matrix(1.0587 0 0 1 46.7012 435.2646)" class="st2 st4">e7</text>
</svg>
