<?xml version="1.0" encoding="utf-8"?>
<!-- Generator: Adobe Illustrator 26.0.1, SVG Export Plug-In . SVG Version: 6.00 Build 0)  -->
<svg version="1.1" id="Layer_1" xmlns="http://www.w3.org/2000/svg" xmlns:xlink="http://www.w3.org/1999/xlink" x="0px" y="0px"
	 viewBox="0 0 612 792" style="enable-background:new 0 0 612 792;" xml:space="preserve">
<style type="text/css">
	.st0{fill:#FFFFFF;stroke:#000000;stroke-width:3;stroke-miterlimit:10;}
	.st1{fill:none;stroke:#000000;stroke-width:3;stroke-miterlimit:10;}
	.st2{stroke:#000000;stroke-width:3;stroke-miterlimit:10;}
	.st3{font-family:'ArialMT';}
	.st4{font-size:21px;}
	.st5{font-size:18px;}
</style>
<rect x="192.69" y="219.23" class="st0" width="229.87" height="332.47"/>
<line class="st1" x1="192.69" y1="551.7" x2="422.57" y2="219.23"/>
<line class="st1" x1="192.69" y1="219.23" x2="422.57" y2="551.7"/>
<line class="st1" x1="422.57" y1="551.7" x2="487.5" y2="486.77"/>
<line class="st1" x1="409.58" y1="551.7" x2="409.58" y2="551.7"/>
<line class="st1" x1="424.8" y1="219.23" x2="491.04" y2="287.12"/>
<line class="st1" x1="490.1" y1="486.77" x2="490.1" y2="285.47"/>
<line class="st1" x1="125.16" y1="486.12" x2="125.16" y2="284.82"/>
<line class="st1" x1="124.22" y1="485.29" x2="190.46" y2="553.18"/>
<line class="st1" x1="123.39" y1="285.65" x2="190.46" y2="218.58"/>
<circle class="st2" cx="191.51" cy="217.52" r="10.39"/>
<circle class="st2" cx="125.16" cy="285.47" r="10.39"/>
<circle class="st2" cx="125.16" cy="486.12" r="10.39"/>
<circle class="st2" cx="189.01" cy="551.7" r="10.39"/>
<circle class="st2" cx="422.57" cy="551.7" r="10.39"/>
<circle class="st2" cx="422.57" cy="219.23" r="10.39"/>
<circle class="st2" cx="490.1" cy="286.16" r="10.39"/>
<circle class="st2" cx="488.15" cy="486.12" r="10.39"/>
<text transform="matrix(1 0 0 1 181.1264 201.5479)" class="st3 st4">A</text>
<text transform="matrix(1 0 0 1 93.472 291.7433)" class="st3 st4">B</text>
<text transform="matrix(1 0 0 1 95.0677 493.9658)" class="st3 st4">C</text>
<text transform="matrix(1 0 0 1 181.1237 587.9996)" class="st3 st4">D</text>
<text transform="matrix(1 0 0 1 418.9536 581.8901)" class="st3 st4">E</text>
<text transform="matrix(1 0 0 1 505.952 494.1758)" class="st3 st4">F</text>
<text transform="matrix(1 0 0 1 507.5477 284.8163)" class="st3 st4">G</text>
<text transform="matrix(1 0 0 1 420.5242 201.5479)" class="st3 st4">H</text>
<text transform="matrix(1 0 0 1 286.6815 208.8423)" class="st3 st5">e1</text>
<text transform="matrix(1 0 0 1 137.5037 244.6236)" class="st3 st5">e2</text>
<text transform="matrix(1 0 0 1 95.8235 375.9814)" class="st3 st5">e3</text>
<text transform="matrix(1 0 0 1 132.7503 527.7314)" class="st3 st5">e4</text>
<text transform="matrix(1 0 0 1 301.4774 567.8052)" class="st3 st5">e5</text>
<text transform="matrix(1 0 0 1 460.0232 525.1348)" class="st3 st5">e6</text>
<text transform="matrix(1 0 0 1 497.6854 382.2773)" class="st3 st5">e7</text>
<text transform="matrix(1 0 0 1 460.7068 244.6235)" class="st3 st5">e8</text>
<text transform="matrix(1 0 0 1 347.7742 301.3705)" class="st3 st5">e9</text>
<text transform="matrix(1 0 0 1 342.3334 493.9658)" class="st3 st5">e10</text>
<text transform="matrix(1 0 0 1 428.8543 375.7832)" class="st3 st5">e11</text>
<text transform="matrix(1 0 0 1 198.74 376.9189)" class="st3 st5">e12</text>
</svg>
