<?xml version="1.0" encoding="utf-8"?>
<!-- Generator: Adobe Illustrator 26.0.1, SVG Export Plug-In . SVG Version: 6.00 Build 0)  -->
<svg version="1.1" id="Layer_1" xmlns="http://www.w3.org/2000/svg" xmlns:xlink="http://www.w3.org/1999/xlink" x="0px" y="0px"
	 viewBox="0 0 612 792" style="enable-background:new 0 0 612 792;" xml:space="preserve">
<style type="text/css">
	.st0{fill:#FFFFFF;stroke:#000000;stroke-width:3;stroke-miterlimit:10;}
	.st1{fill:none;stroke:#000000;stroke-width:3;stroke-miterlimit:10;}
	.st2{stroke:#000000;stroke-width:3;stroke-miterlimit:10;}
	.st3{font-family:'MyriadPro-Regular';}
	.st4{font-size:21px;}
	.st5{font-size:18px;}
</style>
<rect x="152.64" y="270.11" class="st0" width="308.08" height="275.62"/>
<line class="st1" x1="152.64" y1="270.11" x2="460.73" y2="545.73"/>
<circle class="st2" cx="152.64" cy="270.11" r="11.69"/>
<circle class="st2" cx="456.48" cy="270.11" r="11.69"/>
<circle class="st2" cx="456.48" cy="545.73" r="11.69"/>
<circle class="st2" cx="152.64" cy="545.73" r="11.69"/>
<text transform="matrix(1 0 0 1 146.653 247.7101)" class="st3 st4">A</text>
<text transform="matrix(1 0 0 1 460.7252 252.5095)" class="st3 st4">B</text>
<text transform="matrix(1 0 0 1 468.1644 570.3911)" class="st3 st4">D</text>
<text transform="matrix(1 0 0 1 140.9543 580.7924)" class="st3 st4">C</text>
<text transform="matrix(1 0 0 1 300.7947 258.4239)" class="st3 st5">e1</text>
<text transform="matrix(1 0 0 1 468.1644 406.9457)" class="st3 st5">e2</text>
<text transform="matrix(1 0 0 1 308.9769 393.5463)" class="st3 st5">e3</text>
<text transform="matrix(1 0 0 1 124.8062 407.1254)" class="st3 st5">e4</text>
<text transform="matrix(1 0 0 1 301.4783 566.4077)" class="st3 st5">e5</text>
</svg>
