<?xml version="1.0" encoding="utf-8"?>
<!-- Generator: Adobe Illustrator 26.0.1, SVG Export Plug-In . SVG Version: 6.00 Build 0)  -->
<svg version="1.1" id="Layer_1" xmlns="http://www.w3.org/2000/svg" xmlns:xlink="http://www.w3.org/1999/xlink" x="0px" y="0px"
	 viewBox="0 0 612 792" style="enable-background:new 0 0 612 792;" xml:space="preserve">
<style type="text/css">
	.st0{fill:#FFFFFF;stroke:#000000;stroke-width:3;stroke-miterlimit:10;}
	.st1{fill:none;stroke:#000000;stroke-width:3;stroke-miterlimit:10;}
	.st2{stroke:#000000;stroke-width:3;stroke-miterlimit:10;}
	.st3{font-family:'MyriadPro-Regular';}
	.st4{font-size:18px;}
	.st5{font-size:14px;}
</style>
<path class="st0" d="M297.7,149.8"/>
<line class="st1" x1="312.4" y1="236.2" x2="102.6" y2="392.9"/>
<line class="st1" x1="187.3" y1="572.3" x2="102.6" y2="392.9"/>
<line class="st1" x1="516.1" y1="395.7" x2="312.4" y2="236.2"/>
<line class="st1" x1="422.9" y1="569" x2="187.3" y2="572.3"/>
<line class="st1" x1="422.9" y1="569" x2="516.1" y2="395.7"/>
<line class="st1" x1="312.4" y1="236.2" x2="187.3" y2="572.3"/>
<line class="st1" x1="312.4" y1="236.2" x2="422.9" y2="569"/>
<line class="st1" x1="102.6" y1="392.9" x2="422.9" y2="569"/>
<line class="st1" x1="187.3" y1="572.3" x2="516.1" y2="395.7"/>
<line class="st1" x1="102.6" y1="392.9" x2="508.5" y2="399.8"/>
<ellipse class="st2" cx="314.1" cy="235" rx="12.3" ry="11"/>
<ellipse class="st2" cx="102.6" cy="392.9" rx="12.3" ry="11"/>
<ellipse class="st2" cx="187.3" cy="572.3" rx="12.3" ry="11"/>
<ellipse class="st2" cx="422.9" cy="569" rx="12.3" ry="11"/>
<ellipse class="st2" cx="515" cy="396.3" rx="12.3" ry="11"/>
<text transform="matrix(1 0 0 1 308.861 218.5015)" class="st3 st4">A</text>
<text transform="matrix(1 0 0 1 534.5085 403.9)" class="st3 st4">B</text>
<text transform="matrix(1 0 0 1 429.5563 597.2383)" class="st3 st4">C</text>
<text transform="matrix(1 0 0 1 176.2287 602.46)" class="st3 st4">D</text>
<text transform="matrix(1 0 0 1 71.926 396.33)" class="st3 st4">E</text>
<text transform="matrix(1 0 0 1 415.3932 309.46)" class="st3 st5">e1</text>
<text transform="matrix(1 0 0 1 472.7399 488.2061)" class="st3 st5">e2</text>
<text transform="matrix(1 0 0 1 298.1467 590.2383)" class="st3 st5">e3</text>
<text transform="matrix(1 0 0 1 123.1491 488.3458)" class="st3 st5">e4</text>
<text transform="matrix(1 0 0 1 187.331 309.46)" class="st3 st5">e5</text>
<text transform="matrix(1 0 0 1 249.851 349.46)" class="st3 st5">e6</text>
<text transform="matrix(1 0 0 1 357.3893 344.6255)" class="st3 st5">e7</text>
<text transform="matrix(1 0 0 1 414.861 459.46)" class="st3 st5">e8</text>
<text transform="matrix(1 0 0 1 255.3034 470.6339)" class="st3 st5">e9</text>
<text transform="matrix(1 0 0 1 305.546 411.9703)" class="st3 st5">e10</text>
</svg>
