<?xml version="1.0" encoding="utf-8"?>
<!-- Generator: Adobe Illustrator 26.0.1, SVG Export Plug-In . SVG Version: 6.00 Build 0)  -->
<svg version="1.1" id="Layer_1" xmlns="http://www.w3.org/2000/svg" xmlns:xlink="http://www.w3.org/1999/xlink" x="0px" y="0px"
	 viewBox="0 0 612 792" style="enable-background:new 0 0 612 792;" xml:space="preserve">
<style type="text/css">
	.st0{fill:#FFFFFF;stroke:#000000;stroke-width:3;stroke-miterlimit:10;}
	.st1{stroke:#000000;stroke-width:3;stroke-miterlimit:10;}
	.st2{font-family:'MyriadPro-Regular';}
	.st3{font-size:21px;}
	.st4{font-size:18px;}
</style>
<polygon class="st0" points="426,585 192.8,590 116.1,369.7 301.8,228.6 493.4,361.7 "/>
<g>
	<circle class="st1" cx="300" cy="232" r="11.2"/>
</g>
<g>
	<circle class="st1" cx="120" cy="371" r="11.2"/>
</g>
<g>
	<circle class="st1" cx="192.8" cy="590" r="11.2"/>
</g>
<g>
	<circle class="st1" cx="426" cy="585" r="11.2"/>
</g>
<g>
	<circle class="st1" cx="492" cy="359.8" r="11.2"/>
</g>
<text transform="matrix(1 0 0 1 288.75 214.4512)" class="st2 st3">A</text>
<text transform="matrix(1 0 0 1 510.3994 359.75)" class="st2 st3">B</text>
<text transform="matrix(1 0 0 1 437.25 613.126)" class="st2 st3">C</text>
<text transform="matrix(1 0 0 1 164.6841 606)" class="st2 st3">D</text>
<text transform="matrix(1 0 0 1 99.8301 354.9106)" class="st2 st3">E</text>
<text transform="matrix(1 0 0 1 396.7334 285)" class="st2 st4">e1</text>
<text transform="matrix(1 0 0 1 468.6836 483.9727)" class="st2 st4">e2</text>
<text transform="matrix(1 0 0 1 303.082 606)" class="st2 st4">e3</text>
<text transform="matrix(1 0 0 1 131.25 484.1523)" class="st2 st4">e4</text>
<text transform="matrix(1 0 0 1 187.4019 294.4946)" class="st2 st4">e5</text>
</svg>
