<?xml version="1.0" encoding="utf-8"?>
<!-- Generator: Adobe Illustrator 26.0.1, SVG Export Plug-In . SVG Version: 6.00 Build 0)  -->
<svg version="1.1" id="Layer_1" xmlns="http://www.w3.org/2000/svg" xmlns:xlink="http://www.w3.org/1999/xlink" x="0px" y="0px"
	 viewBox="0 0 612 792" style="enable-background:new 0 0 612 792;" xml:space="preserve">
<style type="text/css">
	.st0{fill:#FFFFFF;stroke:#000000;stroke-width:3;stroke-miterlimit:10;}
	.st1{stroke:#000000;stroke-width:3;stroke-miterlimit:10;}
	.st2{font-family:'MyriadPro-Regular';}
	.st3{font-size:18px;}
	.st4{font-size:21px;}
</style>
<polygon class="st0" points="300,208.3 173.1,251.8 105.7,362 129.1,487.3 232.5,569.1 367.5,569.1 470.9,487.3 494.3,362 
	426.8,251.8 "/>
<circle class="st1" cx="171" cy="257.5" r="9.1"/>
<circle class="st1" cx="105.7" cy="358" r="9.1"/>
<circle class="st1" cx="129.4" cy="485.3" r="9.1"/>
<circle class="st1" cx="232" cy="569.1" r="9.2"/>
<circle class="st1" cx="363.1" cy="569.1" r="9.2"/>
<circle class="st1" cx="472.2" cy="485.3" r="9.1"/>
<circle class="st1" cx="494.3" cy="358" r="9.1"/>
<circle class="st1" cx="425.5" cy="248.3" r="9.1"/>
<circle class="st1" cx="300" cy="208.3" r="9.1"/>
<text transform="matrix(1 0 0 1 363.13 217.41)" class="st2 st3">e1</text>
<text transform="matrix(1 0 0 1 464.6836 301.0693)" class="st2 st3">e2</text>
<text transform="matrix(1 0 0 1 487.5791 428.6895)" class="st2 st3">e3</text>
<text transform="matrix(1 0 0 1 420.1318 544.1201)" class="st2 st3">e4</text>
<text transform="matrix(1 0 0 1 284.9219 590.2119)" class="st2 st3">e5</text>
<text transform="matrix(1 0 0 1 155.6274 544.1201)" class="st2 st3">e6</text>
<text transform="matrix(1 0 0 1 96.5 429.1797)" class="st2 st3">e7</text>
<text transform="matrix(1 0 0 1 120.21 301.249)" class="st2 st3">e8</text>
<text transform="matrix(1 0 0 1 217.5957 224.9312)" class="st2 st3">e9</text>
<text transform="matrix(1 0 0 1 290.82 191.8462)" class="st2 st4">A</text>
<text transform="matrix(1 0 0 1 439.5957 239.19)" class="st2 st4">B</text>
<text transform="matrix(1 0 0 1 511.3125 367.18)" class="st2 st4">C</text>
<text transform="matrix(1 0 0 1 485.15 500.8076)" class="st2 st4">D</text>
<text transform="matrix(1 0 0 1 372.28 594.6348)" class="st2 st4">E</text>
<text transform="matrix(1 0 0 1 216 599)" class="st2 st4">F</text>
<text transform="matrix(1 0 0 1 96.5 500.8076)" class="st2 st4">G</text>
<text transform="matrix(1 0 0 1 76.7329 367.18)" class="st2 st4">H</text>
<text transform="matrix(1 0 0 1 156.3115 248.34)" class="st2 st4">I</text>
</svg>
