<?xml version="1.0" encoding="utf-8"?>
<!-- Generator: Adobe Illustrator 26.0.1, SVG Export Plug-In . SVG Version: 6.00 Build 0)  -->
<svg version="1.1" id="Layer_1" xmlns="http://www.w3.org/2000/svg" xmlns:xlink="http://www.w3.org/1999/xlink" x="0px" y="0px"
	 viewBox="0 0 595.3 841.9" style="enable-background:new 0 0 595.3 841.9;" xml:space="preserve">
<style type="text/css">
	.st0{fill:#FFFFFF;stroke:#000000;stroke-width:3;stroke-miterlimit:10;}
	.st1{stroke:#000000;stroke-width:3;stroke-miterlimit:10;}
	.st2{font-family:'MyriadPro-Regular';}
	.st3{font-size:21px;}
	.st4{font-size:18px;}
</style>
<polygon class="st0" points="180.2,626.6 78.6,447.6 180.2,268.6 383.5,268.6 485.2,447.6 383.5,626.6 "/>
<ellipse class="st1" cx="385.8" cy="270.4" rx="10.1" ry="10.3"/>
<ellipse class="st1" cx="183.4" cy="270.4" rx="10.1" ry="10.3"/>
<ellipse class="st1" cx="80.9" cy="449.3" rx="10.1" ry="10.3"/>
<ellipse class="st1" cx="183.4" cy="625.7" rx="10.1" ry="10.3"/>
<ellipse class="st1" cx="382.2" cy="625.7" rx="10.1" ry="10.3"/>
<ellipse class="st1" cx="482.9" cy="449.3" rx="10.1" ry="10.3"/>
<text transform="matrix(1 0 0 1 173.31 253.8789)" class="st2 st3">A</text>
<text transform="matrix(1 0 0 1 385.79 253.8789)" class="st2 st3">B</text>
<text transform="matrix(1 0 0 1 498.3125 459.6)" class="st2 st3">C</text>
<text transform="matrix(1 0 0 1 396.3105 634.8457)" class="st2 st3">D</text>
<text transform="matrix(1 0 0 1 156.4468 634.8457)" class="st2 st3">E</text>
<text transform="matrix(1 0 0 1 54.2188 455.4038)" class="st2 st3">F</text>
<text transform="matrix(1 0 0 1 276.856 260.13)" class="st2 st4">e1</text>
<text transform="matrix(1 0 0 1 437.7002 354.3145)" class="st2 st4">e2</text>
<text transform="matrix(1 0 0 1 438.3838 547.6895)" class="st2 st4">e3</text>
<text transform="matrix(1 0 0 1 273.7256 647.5703)" class="st2 st4">e4</text>
<text transform="matrix(1 0 0 1 105.1582 547.8867)" class="st2 st4">e5</text>
<text transform="matrix(1 0 0 1 105.8423 358.3604)" class="st2 st4">e6</text>
</svg>
