<?xml version="1.0" encoding="utf-8"?>
<!-- Generator: Adobe Illustrator 26.0.1, SVG Export Plug-In . SVG Version: 6.00 Build 0)  -->
<svg version="1.1" id="Layer_1" xmlns="http://www.w3.org/2000/svg" xmlns:xlink="http://www.w3.org/1999/xlink" x="0px" y="0px"
	 viewBox="0 0 612 792" style="enable-background:new 0 0 612 792;" xml:space="preserve">
<style type="text/css">
	.st0{fill:#FFFFFF;stroke:#000000;stroke-width:3;stroke-miterlimit:10;}
	.st1{stroke:#000000;stroke-width:3;stroke-miterlimit:10;}
	.st2{fill:none;stroke:#000000;stroke-width:3;stroke-miterlimit:10;}
	.st3{font-family:'MyriadPro-Regular';}
	.st4{font-size:21px;}
	.st5{font-size:18px;}
</style>
<rect x="172.4" y="308.1" class="st0" width="259.7" height="219.5"/>
<circle class="st1" cx="172.4" cy="308.1" r="8.1"/>
<line class="st2" x1="172.4" y1="308.1" x2="432.1" y2="527.6"/>
<line class="st2" x1="172.4" y1="527.6" x2="432.1" y2="308.1"/>
<circle class="st1" cx="302.2" cy="417.8" r="8.1"/>
<circle class="st1" cx="432.1" cy="308.1" r="8.1"/>
<circle class="st1" cx="432.1" cy="527.6" r="8.1"/>
<circle class="st1" cx="172.4" cy="527.6" r="8.1"/>
<text transform="matrix(1 0 0 1 301.3687 399.8789)" class="st3 st4">A</text>
<text transform="matrix(1 0 0 1 449.1162 311.7817)" class="st3 st4">B</text>
<text transform="matrix(1 0 0 1 445.9358 535.675)" class="st3 st4">C</text>
<text transform="matrix(1 0 0 1 147.5547 535.6748)" class="st3 st4">D</text>
<text transform="matrix(1 0 0 1 147.5547 311.9077)" class="st3 st4">E</text>
<text transform="matrix(1 0 0 1 344.7959 361)" class="st3 st5">e1</text>
<text transform="matrix(1 0 0 1 440.22 414.2998)" class="st3 st5">e2</text>
<text transform="matrix(1 0 0 1 301.8936 550)" class="st3 st5">e3</text>
<text transform="matrix(1 0 0 1 143.1094 425.935)" class="st3 st5">e4</text>
<text transform="matrix(1 0 0 1 226.5542 381.6191)" class="st3 st5">e5</text>
<text transform="matrix(1 0 0 1 301.8936 297.5229)" class="st3 st5">e6</text>
<text transform="matrix(1 0 0 1 241.6841 479.3535)" class="st3 st5">e7</text>
<text transform="matrix(1 0 0 1 345.4795 479.5332)" class="st3 st5">e8</text>
</svg>
