<?xml version="1.0" encoding="utf-8"?>
<!-- Generator: Adobe Illustrator 26.0.1, SVG Export Plug-In . SVG Version: 6.00 Build 0)  -->
<svg version="1.1" id="Layer_1" xmlns="http://www.w3.org/2000/svg" xmlns:xlink="http://www.w3.org/1999/xlink" x="0px" y="0px"
	 viewBox="0 0 612 792" style="enable-background:new 0 0 612 792;" xml:space="preserve">
<style type="text/css">
	.st0{stroke:#000000;stroke-width:3;stroke-miterlimit:10.0001;}
	.st1{fill:none;stroke:#000000;stroke-width:3;stroke-miterlimit:10;}
	.st2{font-family:'MyriadPro-Regular';}
	.st3{font-size:21px;}
	.st4{font-size:18px;}
</style>
<g>
	
		<ellipse transform="matrix(0.9981 -6.169968e-02 6.169968e-02 0.9981 -35.0156 29.7366)" class="st0" cx="464" cy="581.8" rx="11.3" ry="11.1"/>
</g>
<g>
	
		<ellipse transform="matrix(0.9981 -6.169968e-02 6.169968e-02 0.9981 -20.0185 28.3435)" class="st0" cx="448.9" cy="338.3" rx="11.3" ry="11.1"/>
</g>
<g>
	
		<ellipse transform="matrix(0.9981 -6.169968e-02 6.169968e-02 0.9981 -27.9646 20.2162)" class="st0" cx="313.4" cy="462.9" rx="11.3" ry="11.1"/>
</g>
<g>
	
		<ellipse transform="matrix(0.9981 -6.169968e-02 6.169968e-02 0.9981 -21.4032 8.758)" class="st0" cx="131.1" cy="350.9" rx="11.3" ry="11.1"/>
</g>
<g>
	
		<ellipse transform="matrix(0.9981 -6.169968e-02 6.169968e-02 0.9981 -13.3357 18.8579)" class="st0" cx="298.7" cy="225.4" rx="11.3" ry="11.1"/>
</g>
<g>
	
		<ellipse transform="matrix(0.9981 -6.169968e-02 6.169968e-02 0.9981 -36.1485 10.1274)" class="st0" cx="145.9" cy="590.4" rx="11.3" ry="11.1"/>
</g>
<line class="st1" x1="448.9" y1="338.3" x2="313.4" y2="462.9"/>
<line class="st1" x1="298.7" y1="225.4" x2="448.9" y2="338.3"/>
<line class="st1" x1="131.1" y1="350.9" x2="298.7" y2="225.4"/>
<line class="st1" x1="313.4" y1="462.9" x2="131.1" y2="350.9"/>
<line class="st1" x1="145.9" y1="590.4" x2="313.4" y2="462.9"/>
<line class="st1" x1="464" y1="581.8" x2="313.4" y2="462.9"/>
<line class="st1" x1="145.9" y1="590.4" x2="464" y2="581.8"/>
<line class="st1" x1="298.7" y1="225.4" x2="313" y2="456.9"/>
<line class="st1" x1="448.9" y1="338.3" x2="131.1" y2="350.9"/>
<text transform="matrix(1 0 0 1 290.02 207.9731)" class="st2 st3">A</text>
<text transform="matrix(1 0 0 1 463.99 345.1021)" class="st2 st3">B</text>
<text transform="matrix(1 0 0 1 482.0312 592.9559)" class="st2 st3">D</text>
<text transform="matrix(1 0 0 1 119.8595 602.4795)" class="st2 st3">E</text>
<text transform="matrix(1 0 0 1 373.805 271.1797)" class="st2 st4">e1</text>
<text transform="matrix(1 0 0 1 384 410.1973)" class="st2 st4">e2</text>
<text transform="matrix(1 0 0 1 383.6836 508.5938)" class="st2 st4">e3</text>
<text transform="matrix(1 0 0 1 309.9306 602.2998)" class="st2 st4">e4</text>
<text transform="matrix(1 0 0 1 214.895 517.4365)" class="st2 st4">e5</text>
<text transform="matrix(1 0 0 1 200.4238 419.0693)" class="st2 st4">e6</text>
<text transform="matrix(1 0 0 1 193.6816 281.835)" class="st2 st4">e7</text>
<text transform="matrix(1 0 0 1 309.9306 303.1978)" class="st2 st4">e8</text>
<text transform="matrix(1 0 0 1 239.6841 362.0532)" class="st2 st4">e9</text>
<text transform="matrix(1 0 0 1 337.3125 466.3903)" class="st2 st3">C</text>
<text transform="matrix(1 0 0 1 102.9388 350.9421)" class="st2 st3">F</text>
</svg>
