<?xml version="1.0" encoding="utf-8"?>
<!-- Generator: Adobe Illustrator 26.0.1, SVG Export Plug-In . SVG Version: 6.00 Build 0)  -->
<svg version="1.1" id="Layer_1" xmlns="http://www.w3.org/2000/svg" xmlns:xlink="http://www.w3.org/1999/xlink" x="0px" y="0px"
	 viewBox="0 0 612 792" style="enable-background:new 0 0 612 792;" xml:space="preserve">
<style type="text/css">
	.st0{stroke:#000000;stroke-width:3;stroke-miterlimit:10;}
	.st1{fill:none;stroke:#000000;stroke-width:3;stroke-miterlimit:10;}
</style>
<g>
	<ellipse class="st0" cx="67.4" cy="378.2" rx="9.6" ry="9.6"/>
</g>
<g>
	<ellipse class="st0" cx="508" cy="378.2" rx="9.6" ry="9.6"/>
</g>
<g>
	<ellipse class="st0" cx="297.8" cy="236.4" rx="9.6" ry="9.6"/>
</g>
<g>
	<ellipse class="st0" cx="296.4" cy="518.7" rx="9.6" ry="9.6"/>
</g>
<g>
	<ellipse class="st0" cx="159" cy="378.2" rx="9.6" ry="9.6"/>
</g>
<g>
	<ellipse class="st0" cx="420" cy="378.2" rx="9.6" ry="9.6"/>
</g>
<g>
	<ellipse class="st0" cx="296.4" cy="374" rx="9.6" ry="9.6"/>
</g>
<g>
	<ellipse class="st0" cx="241.4" cy="318.2" rx="9.6" ry="9.6"/>
</g>
<g>
	<ellipse class="st0" cx="241.6" cy="431.3" rx="9.6" ry="9.6"/>
</g>
<g>
	<ellipse class="st0" cx="350.2" cy="430.3" rx="9.6" ry="9.6"/>
</g>
<g>
	<ellipse class="st0" cx="350.2" cy="318.2" rx="9.6" ry="9.6"/>
</g>
<line class="st1" x1="67.4" y1="378.2" x2="296.4" y2="236.4"/>
<line class="st1" x1="296.4" y1="518.7" x2="67.4" y2="378.2"/>
<line class="st1" x1="508" y1="378.2" x2="296.4" y2="518.7"/>
<line class="st1" x1="296.4" y1="236.4" x2="513" y2="378.2"/>
<line class="st1" x1="67.4" y1="378.2" x2="513" y2="378.2"/>
<line class="st1" x1="159" y1="374" x2="296.4" y2="236.4"/>
<line class="st1" x1="296.4" y1="518.7" x2="159" y2="374"/>
<line class="st1" x1="424.8" y1="378.2" x2="305.8" y2="241.7"/>
<line class="st1" x1="296.4" y1="518.7" x2="429.6" y2="378.2"/>
<line class="st1" x1="159" y1="374" x2="241.6" y2="318.2"/>
<line class="st1" x1="296.4" y1="236.4" x2="241.6" y2="318.2"/>
<line class="st1" x1="296.4" y1="518.7" x2="241.4" y2="431.3"/>
<line class="st1" x1="159" y1="374" x2="241.4" y2="431.3"/>
<line class="st1" x1="350.2" y1="318.2" x2="296.4" y2="236.4"/>
<line class="st1" x1="424.5" y1="383.6" x2="350.2" y2="318.2"/>
<path class="st1" d="M350.2,430.3l-53.8,88.4"/>
<line class="st1" x1="424.8" y1="378.2" x2="350.2" y2="430.3"/>
<line class="st1" x1="296.4" y1="374" x2="350.2" y2="318.2"/>
<line class="st1" x1="241.6" y1="318.2" x2="296.4" y2="374"/>
<line class="st1" x1="241.4" y1="431.3" x2="296.4" y2="374"/>
<line class="st1" x1="350.2" y1="430.3" x2="296.4" y2="374"/>
<path class="st1" d="M296.4,518.7c170-4.8,287.1-76.8,288.6-133.7c1.6-57.5-113.7-137.4-288.6-148.6"/>
</svg>
