<?xml version="1.0" encoding="utf-8"?>
<!-- Generator: Adobe Illustrator 26.0.1, SVG Export Plug-In . SVG Version: 6.00 Build 0)  -->
<svg version="1.1" id="Layer_1" xmlns="http://www.w3.org/2000/svg" xmlns:xlink="http://www.w3.org/1999/xlink" x="0px" y="0px"
	 viewBox="0 0 612 792" style="enable-background:new 0 0 612 792;" xml:space="preserve">
<style type="text/css">
	.st0{stroke:#000000;stroke-width:3;stroke-miterlimit:10;}
	.st1{fill:none;stroke:#000000;stroke-width:3;stroke-miterlimit:10;}
</style>
<g>
	<ellipse class="st0" cx="93" cy="429.9" rx="9.6" ry="9.6"/>
</g>
<g>
	<ellipse class="st0" cx="501" cy="429.9" rx="9.6" ry="9.6"/>
</g>
<g>
	<ellipse class="st0" cx="165" cy="297.5" rx="9.6" ry="9.6"/>
</g>
<g>
	<ellipse class="st0" cx="305" cy="212.5" rx="9.6" ry="9.6"/>
</g>
<g>
	<ellipse class="st0" cx="426" cy="297.5" rx="9.6" ry="9.6"/>
</g>
<g>
	<ellipse class="st0" cx="252" cy="376.3" rx="9.6" ry="9.6"/>
</g>
<g>
	<ellipse class="st0" cx="349" cy="376.3" rx="9.6" ry="9.6"/>
</g>
<line class="st1" x1="93" y1="429.9" x2="501" y2="429.9"/>
<line class="st1" x1="165" y1="297.5" x2="93" y2="429.9"/>
<line class="st1" x1="305" y1="212.5" x2="165" y2="297.5"/>
<line class="st1" x1="426" y1="297.5" x2="305" y2="212.5"/>
<line class="st1" x1="501" y1="429.9" x2="426" y2="297.5"/>
<line class="st1" x1="93" y1="434" x2="257" y2="376.3"/>
<line class="st1" x1="305" y1="212.5" x2="252" y2="378.1"/>
<line class="st1" x1="349" y1="376.3" x2="305" y2="212.5"/>
<line class="st1" x1="501" y1="429.9" x2="349" y2="376.3"/>
<line class="st1" x1="165" y1="297.5" x2="252" y2="378.1"/>
<line class="st1" x1="426" y1="297.5" x2="349" y2="376.3"/>
</svg>
