<?xml version="1.0" encoding="utf-8"?>
<!-- Generator: Adobe Illustrator 26.0.1, SVG Export Plug-In . SVG Version: 6.00 Build 0)  -->
<svg version="1.1" id="Layer_1" xmlns="http://www.w3.org/2000/svg" xmlns:xlink="http://www.w3.org/1999/xlink" x="0px" y="0px"
	 viewBox="0 0 612 792" style="enable-background:new 0 0 612 792;" xml:space="preserve">
<style type="text/css">
	.st0{fill:#FFFFFF;stroke:#000000;stroke-width:3;stroke-miterlimit:10;}
	.st1{stroke:#000000;stroke-width:3;stroke-miterlimit:10;}
	.st2{fill:none;stroke:#000000;stroke-width:3;stroke-miterlimit:10;}
</style>
<polygon class="st0" points="413,537 179.8,542 103.1,321.7 288.8,180.6 480.4,313.7 "/>
<g>
	<circle class="st1" cx="287" cy="184" r="11.2"/>
</g>
<g>
	<circle class="st1" cx="107" cy="323" r="11.2"/>
</g>
<g>
	<circle class="st1" cx="179.8" cy="542" r="11.2"/>
</g>
<g>
	<circle class="st1" cx="413" cy="537" r="11.2"/>
</g>
<g>
	<circle class="st1" cx="480.4" cy="323" r="11.2"/>
</g>
<g>
	<circle class="st1" cx="287" cy="273.5" r="11.2"/>
</g>
<g>
	<circle class="st1" cx="191.1" cy="350" r="11.2"/>
</g>
<g>
	<circle class="st1" cx="239" cy="449.5" r="11.2"/>
</g>
<g>
	<circle class="st1" cx="340.2" cy="449.5" r="11.2"/>
</g>
<g>
	<circle class="st1" cx="390.5" cy="350" r="11.2"/>
</g>
<line class="st2" x1="287" y1="273.5" x2="287" y2="190"/>
<line class="st2" x1="103.1" y1="321.7" x2="191.1" y2="350"/>
<line class="st2" x1="179.8" y1="548.2" x2="239" y2="449.5"/>
<line class="st2" x1="413" y1="537" x2="340.2" y2="449.5"/>
<line class="st2" x1="390.5" y1="350" x2="480.4" y2="323"/>
<line class="st2" x1="239" y1="454" x2="287" y2="273.5"/>
<line class="st2" x1="340.2" y1="449.5" x2="287" y2="273.5"/>
<line class="st2" x1="191.1" y1="350" x2="340.2" y2="449.5"/>
<line class="st2" x1="390.5" y1="350" x2="191.1" y2="350"/>
<line class="st2" x1="239" y1="449.5" x2="390.5" y2="350"/>
</svg>
