<?xml version="1.0" encoding="utf-8"?>
<!-- Generator: Adobe Illustrator 26.0.1, SVG Export Plug-In . SVG Version: 6.00 Build 0)  -->
<svg version="1.1" id="Layer_1" xmlns="http://www.w3.org/2000/svg" xmlns:xlink="http://www.w3.org/1999/xlink" x="0px" y="0px"
	 viewBox="0 0 612 792" style="enable-background:new 0 0 612 792;" xml:space="preserve">
<style type="text/css">
	.st0{stroke:#000000;stroke-width:3;stroke-miterlimit:10;}
	.st1{fill:none;stroke:#000000;stroke-width:3;stroke-miterlimit:10;}
</style>
<g>
	<ellipse class="st0" cx="290.4" cy="134.2" rx="9.6" ry="9.6"/>
</g>
<polygon class="st1" points="392.8,535.4 285.3,561.8 178.9,531 102.3,451.1 75.9,343.6 106.7,237.3 186.6,160.6 294.1,134.2 
	400.4,165.1 477.1,244.9 503.5,352.4 472.6,458.8 "/>
<g>
	<ellipse class="st0" cx="400" cy="167.5" rx="9.6" ry="9.6"/>
</g>
<g>
	<ellipse class="st0" cx="474" cy="245.5" rx="9.6" ry="9.6"/>
</g>
<g>
	<ellipse class="st0" cx="500" cy="348" rx="9.6" ry="9.6"/>
</g>
<g>
	<ellipse class="st0" cx="474" cy="454.5" rx="9.6" ry="9.6"/>
</g>
<g>
	<ellipse class="st0" cx="400" cy="533.5" rx="9.6" ry="9.6"/>
</g>
<g>
	<ellipse class="st0" cx="290.4" cy="561.5" rx="9.6" ry="9.6"/>
</g>
<g>
	<ellipse class="st0" cx="181" cy="533.5" rx="9.6" ry="9.6"/>
</g>
<g>
	<ellipse class="st0" cx="101.3" cy="452.6" rx="9.6" ry="9.6"/>
</g>
<g>
	<ellipse class="st0" cx="77" cy="348" rx="9.6" ry="9.6"/>
</g>
<g>
	<ellipse class="st0" cx="101.3" cy="245.5" rx="9.6" ry="9.6"/>
</g>
<g>
	<ellipse class="st0" cx="186" cy="167.5" rx="9.6" ry="9.6"/>
</g>
<line class="st1" x1="186" y1="167.5" x2="186" y2="533.5"/>
<line class="st1" x1="289.7" y1="134.2" x2="290.4" y2="567"/>
<line class="st1" x1="400.4" y1="165.1" x2="400" y2="533.5"/>
<line class="st1" x1="77.6" y1="350.6" x2="502.4" y2="348"/>
<line class="st1" x1="101.3" y1="245.5" x2="477.1" y2="244.9"/>
<line class="st1" x1="102.3" y1="451.1" x2="475.5" y2="452.6"/>
</svg>
