<?xml version="1.0" encoding="utf-8"?>
<!-- Generator: Adobe Illustrator 26.0.1, SVG Export Plug-In . SVG Version: 6.00 Build 0)  -->
<svg version="1.1" id="Layer_1" xmlns="http://www.w3.org/2000/svg" xmlns:xlink="http://www.w3.org/1999/xlink" x="0px" y="0px"
	 viewBox="0 0 612 792" style="enable-background:new 0 0 612 792;" xml:space="preserve">
<style type="text/css">
	.st0{stroke:#000000;stroke-width:3;stroke-miterlimit:10;}
	.st1{fill:none;stroke:#000000;stroke-width:3;stroke-miterlimit:10;}
</style>
<g>
	<ellipse class="st0" cx="195" cy="223.3" rx="6.5" ry="6.1"/>
</g>
<rect x="195" y="220.2" class="st1" width="181.3" height="165.9"/>
<g>
	<ellipse class="st0" cx="377.8" cy="221.2" rx="6.5" ry="6.1"/>
</g>
<g>
	<ellipse class="st0" cx="195" cy="383.6" rx="6.5" ry="6.1"/>
</g>
<g>
	<ellipse class="st0" cx="376.3" cy="383.6" rx="6.5" ry="6.1"/>
</g>
<g>
	<ellipse class="st0" cx="285.6" cy="303.1" rx="6.5" ry="6.1"/>
</g>
<line class="st1" x1="285.6" y1="303.1" x2="376.3" y2="223.3"/>
<line class="st1" x1="195" y1="386" x2="285.6" y2="303.1"/>
<line class="st1" x1="195" y1="223.3" x2="292.2" y2="309.2"/>
<line class="st1" x1="376.3" y1="386" x2="285.6" y2="303.1"/>
<g>
	<ellipse class="st0" cx="120.4" cy="448.7" rx="6.5" ry="6.1"/>
</g>
<g>
	<ellipse class="st0" cx="208.1" cy="448.7" rx="6.5" ry="6.1"/>
</g>
<g>
	<ellipse class="st0" cx="292.2" cy="448.7" rx="6.5" ry="6.1"/>
</g>
<g>
	<ellipse class="st0" cx="384.3" cy="448.7" rx="6.5" ry="6.1"/>
</g>
<g>
	<ellipse class="st0" cx="464" cy="448.7" rx="6.5" ry="6.1"/>
</g>
<line class="st1" x1="116.2" y1="453.4" x2="195" y2="386"/>
<path class="st1" d="M285.6,303.1c-59-30.5-130.6-16.9-165.4,26.3c-26.6,33-28.9,79.7-6.4,119.4"/>
<path class="st1" d="M120.4,448.7C48.8,373.2,62.5,261,138.4,207c64.9-46.1,165-42.5,232.9,14.2"/>
<line class="st1" x1="208.1" y1="448.7" x2="376.3" y2="386"/>
<line class="st1" x1="285.6" y1="303.1" x2="208.1" y2="448.7"/>
<line class="st1" x1="195" y1="223.3" x2="208.1" y2="448.7"/>
<line class="st1" x1="292.2" y1="448.7" x2="195" y2="386"/>
<line class="st1" x1="285.6" y1="309.2" x2="292.2" y2="448.7"/>
<line class="st1" x1="376.3" y1="220.2" x2="292.2" y2="448.7"/>
<line class="st1" x1="384.3" y1="448.7" x2="376.3" y2="389.7"/>
<line class="st1" x1="285.6" y1="303.1" x2="384.3" y2="451.7"/>
<path class="st1" d="M195,223.3c80.2-70.4,196.4-64.9,247.7-14.1c56.4,55.8,46,177.4-58.4,239.6"/>
<line class="st1" x1="464" y1="448.7" x2="380.3" y2="220.2"/>
<line class="st1" x1="376.3" y1="386" x2="464" y2="448.7"/>
<path class="st1" d="M195,386c2.7,6.8,30.7,74.8,111,96.1c86.7,22.9,153.7-29.9,157.9-33.4"/>
<path class="st1" d="M195,220.2c69.1-75,183.4-89,256-44.2c86.1,53.1,107.6,185,19.5,272.8"/>
</svg>
