<?xml version="1.0" encoding="utf-8"?>
<!-- Generator: Adobe Illustrator 26.0.1, SVG Export Plug-In . SVG Version: 6.00 Build 0)  -->
<svg version="1.1" id="Layer_1" xmlns="http://www.w3.org/2000/svg" xmlns:xlink="http://www.w3.org/1999/xlink" x="0px" y="0px"
	 viewBox="0 0 612 792" style="enable-background:new 0 0 612 792;" xml:space="preserve">
<style type="text/css">
	.st0{stroke:#000000;stroke-width:3;stroke-miterlimit:10;}
	.st1{fill:none;stroke:#000000;stroke-width:3;stroke-miterlimit:10;}
</style>
<ellipse class="st0" cx="172.75" cy="282.89" rx="8.75" ry="9.07"/>
<ellipse class="st0" cx="421.75" cy="282.89" rx="8.75" ry="9.07"/>
<g>
	<ellipse class="st0" cx="172.75" cy="486" rx="8.75" ry="9.07"/>
</g>
<ellipse class="st0" cx="421.75" cy="486" rx="8.75" ry="9.07"/>
<line class="st1" x1="421.75" y1="282.89" x2="421.75" y2="486"/>
<line class="st1" x1="172.75" y1="486" x2="421.75" y2="486"/>
<line class="st1" x1="172.75" y1="282.89" x2="172.75" y2="486"/>
<line class="st1" x1="421.75" y1="282.89" x2="172.75" y2="282.89"/>
<ellipse class="st0" cx="473.25" cy="557.07" rx="8.75" ry="9.07"/>
<ellipse class="st0" cx="116.5" cy="548" rx="8.75" ry="9.07"/>
<ellipse class="st0" cx="473.25" cy="233" rx="8.75" ry="9.07"/>
<ellipse class="st0" cx="116.5" cy="233" rx="8.75" ry="9.07"/>
<line class="st1" x1="116.5" y1="233" x2="172.75" y2="495.07"/>
<line class="st1" x1="421.75" y1="282.89" x2="116.5" y2="233"/>
<line class="st1" x1="172.75" y1="282.89" x2="473.25" y2="233"/>
<line class="st1" x1="421.75" y1="486" x2="473.25" y2="233"/>
<line class="st1" x1="116.5" y1="548" x2="172.75" y2="282.89"/>
<line class="st1" x1="421.75" y1="486" x2="116.5" y2="548"/>
<line class="st1" x1="171.15" y1="487.61" x2="473.25" y2="557.07"/>
<line class="st1" x1="421.75" y1="282.89" x2="473.25" y2="557.07"/>
</svg>
