<?xml version="1.0" encoding="utf-8"?>
<!-- Generator: Adobe Illustrator 26.0.1, SVG Export Plug-In . SVG Version: 6.00 Build 0)  -->
<svg version="1.1" id="Layer_1" xmlns="http://www.w3.org/2000/svg" xmlns:xlink="http://www.w3.org/1999/xlink" x="0px" y="0px"
	 viewBox="0 0 612 792" style="enable-background:new 0 0 612 792;" xml:space="preserve">
<style type="text/css">
	.st0{stroke:#000000;stroke-width:3.0002;stroke-miterlimit:10.0006;}
	.st1{fill:none;stroke:#000000;stroke-width:3.0002;stroke-miterlimit:10.0006;}
	.st2{fill:none;stroke:#000000;stroke-width:2;stroke-miterlimit:10.0006;}
	.st3{fill:none;stroke:#000000;stroke-width:3;stroke-miterlimit:10.0006;}
</style>
<g>
	
		<ellipse transform="matrix(0.5099 -0.8602 0.8602 0.5099 -265.8073 269.1662)" class="st0" cx="103.3" cy="367.9" rx="9.8" ry="10.1"/>
</g>
<g>
	
		<ellipse transform="matrix(0.5099 -0.8602 0.8602 0.5099 -170.0638 437.2112)" class="st0" cx="298.7" cy="367.9" rx="9.8" ry="10.1"/>
</g>
<g>
	
		<ellipse transform="matrix(0.5099 -0.8602 0.8602 0.5099 -74.3203 605.2561)" class="st0" cx="494" cy="367.9" rx="9.8" ry="10.1"/>
</g>
<line class="st1" x1="103.3" y1="367.9" x2="494" y2="367.9"/>
<g>
	
		<ellipse transform="matrix(0.5099 -0.8602 0.8602 0.5099 -148.2251 242.8414)" class="st0" cx="139" cy="251.5" rx="9.8" ry="10.1"/>
</g>
<g>
	
		<ellipse transform="matrix(0.5099 -0.8602 0.8602 0.5099 -39.9072 432.9565)" class="st0" cx="360" cy="251.5" rx="9.8" ry="10.1"/>
</g>
<g>
	<ellipse transform="matrix(0.5099 -0.8602 0.8602 0.5099 61.5489 611.0281)" class="st0" cx="567" cy="251.5" rx="9.8" ry="10.1"/>
</g>
<line class="st2" x1="139" y1="251.5" x2="298.7" y2="367.9"/>
<line class="st2" x1="360" y1="251.5" x2="103.3" y2="367.9"/>
<line class="st3" x1="494" y1="367.9" x2="360" y2="251.5"/>
<line class="st3" x1="567" y1="251.5" x2="298.7" y2="367.9"/>
</svg>
