<?xml version="1.0" encoding="utf-8"?>
<!-- Generator: Adobe Illustrator 26.0.1, SVG Export Plug-In . SVG Version: 6.00 Build 0)  -->
<svg version="1.1" id="Layer_1" xmlns="http://www.w3.org/2000/svg" xmlns:xlink="http://www.w3.org/1999/xlink" x="0px" y="0px"
	 viewBox="0 0 612 792" style="enable-background:new 0 0 612 792;" xml:space="preserve">
<style type="text/css">
	.st0{fill:none;stroke:#000000;stroke-width:3;stroke-miterlimit:10.0001;}
	.st1{fill:none;stroke:#000000;stroke-width:3;stroke-miterlimit:10;}
	.st2{stroke:#000000;stroke-width:3.0002;stroke-miterlimit:10.0006;}
	.st3{fill:none;stroke:#000000;stroke-width:3.0002;stroke-miterlimit:10.0006;}
</style>
<rect x="118.5" y="283.6" transform="matrix(1 -5.217587e-03 5.217587e-03 1 -2.0165 1.1633)" class="st0" width="206.9" height="206.9"/>
<polygon class="st1" points="325,490.3 327.8,282.2 506.6,388.7 "/>
<g>
	
		<ellipse transform="matrix(0.5099 -0.8603 0.8603 0.5099 -90.8627 624.8589)" class="st2" cx="502.9" cy="392.2" rx="9.8" ry="10.1"/>
</g>
<g>
	
		<ellipse transform="matrix(0.5099 -0.8603 0.8603 0.5099 -86.7616 420.3566)" class="st2" cx="325.5" cy="286.3" rx="9.8" ry="10.1"/>
</g>
<g>
	
		<ellipse transform="matrix(0.5099 -0.8603 0.8603 0.5099 -261.5063 519.9973)" class="st2" cx="325.6" cy="489.5" rx="9.8" ry="10.1"/>
</g>
<g>
	
		<ellipse transform="matrix(0.5099 -0.8602 0.8602 0.5099 -363.6119 342.9444)" class="st2" cx="119.2" cy="490.6" rx="9.8" ry="10.1"/>
</g>
<g>
	
		<ellipse transform="matrix(0.5099 -0.8602 0.8602 0.5099 -187.917 242.7676)" class="st2" cx="119.1" cy="286.3" rx="9.8" ry="10.1"/>
</g>
<g>
	<ellipse transform="matrix(0.5099 -0.8602 0.8602 0.5099 -182.0337 175.502)" class="st2" cx="63" cy="247.5" rx="9.8" ry="10.1"/>
</g>
<g>
	
		<ellipse transform="matrix(0.5099 -0.8602 0.8602 0.5099 -437.5278 321.0695)" class="st2" cx="63" cy="544.5" rx="9.8" ry="10.1"/>
</g>
<g>
	
		<ellipse transform="matrix(0.5099 -0.8602 0.8602 0.5099 -308.6526 547.2658)" class="st2" cx="325.9" cy="544.5" rx="9.8" ry="10.1"/>
</g>
<g>
	<ellipse transform="matrix(0.5099 -0.8602 0.8602 0.5099 -57.0093 684.274)" class="st2" cx="572" cy="392.2" rx="9.8" ry="10.1"/>
</g>
<g>
	<ellipse transform="matrix(0.5099 -0.8602 0.8602 0.5099 -35.486 432.7165)" class="st2" cx="362" cy="247.5" rx="9.8" ry="10.1"/>
</g>
<line class="st3" x1="63" y1="247.5" x2="119.1" y2="500.4"/>
<line class="st3" x1="324.9" y1="283.1" x2="63" y2="247.5"/>
<line class="st3" x1="118" y1="284.1" x2="362" y2="247.5"/>
<line class="st3" x1="502.9" y1="396" x2="362" y2="247.5"/>
<path class="st3" d="M325.9,490c155,17.6,275-11,286.1-57c11.4-47.2-87.6-131.6-250-185.5"/>
<line class="st3" x1="324.9" y1="283.1" x2="572" y2="392.2"/>
<line class="st3" x1="325" y1="490.3" x2="572" y2="392.2"/>
<line class="st3" x1="325" y1="544.5" x2="502.9" y2="396"/>
<line class="st3" x1="124" y1="491" x2="325" y2="544.5"/>
<path class="st3" d="M324.9,283.1c-55.1,10-100.7,45.3-114.9,91.9c-20.3,67,25.8,152.9,115,179.3"/>
<line class="st3" x1="63" y1="544.5" x2="118" y2="284.1"/>
<line class="st3" x1="325" y1="490.3" x2="63" y2="544.5"/>
</svg>
