<?xml version="1.0" encoding="utf-8"?>
<!-- Generator: Adobe Illustrator 26.0.1, SVG Export Plug-In . SVG Version: 6.00 Build 0)  -->
<svg version="1.1" id="Layer_1" xmlns="http://www.w3.org/2000/svg" xmlns:xlink="http://www.w3.org/1999/xlink" x="0px" y="0px"
	 viewBox="0 0 612 792" style="enable-background:new 0 0 612 792;" xml:space="preserve">
<style type="text/css">
	.st0{fill:none;stroke:#000000;stroke-width:3;stroke-miterlimit:10;}
	.st1{stroke:#000000;stroke-width:3;stroke-miterlimit:10;}
</style>
<line class="st0" x1="455.57" y1="386.29" x2="153.91" y2="388.23"/>
<line class="st0" x1="304.74" y1="559.53" x2="304.74" y2="214.99"/>
<ellipse class="st1" cx="304.74" cy="220" rx="8.91" ry="10.18"/>
<ellipse class="st1" cx="304.74" cy="387.26" rx="8.91" ry="10.18"/>
<ellipse class="st1" cx="153.47" cy="388.23" rx="8.91" ry="10.18"/>
<ellipse class="st1" cx="453.59" cy="387.26" rx="8.91" ry="10.18"/>
<ellipse class="st1" cx="304.74" cy="554.52" rx="8.91" ry="10.18"/>
<line class="st0" x1="153.47" y1="388.23" x2="97.29" y2="483.42"/>
<line class="st0" x1="453.59" y1="387.26" x2="397.41" y2="482.45"/>
<line class="st0" x1="217.92" y1="476.31" x2="153.47" y2="388.23"/>
<line class="st0" x1="523.31" y1="474.91" x2="456.01" y2="389.64"/>
<ellipse class="st1" cx="97.83" cy="482.51" rx="8.91" ry="10.18"/>
<ellipse class="st1" cx="218.27" cy="476.78" rx="8.91" ry="10.18"/>
<ellipse class="st1" cx="400.76" cy="476.78" rx="8.91" ry="10.18"/>
<ellipse class="st1" cx="518.96" cy="476.78" rx="8.91" ry="10.18"/>
<line class="st0" x1="304.74" y1="220" x2="238.66" y2="305.98"/>
<line class="st0" x1="376.45" y1="288.54" x2="299.73" y2="214.99"/>
<ellipse class="st1" cx="240.75" cy="303.26" rx="8.91" ry="10.18"/>
<ellipse class="st1" cx="379.8" cy="293.08" rx="8.91" ry="10.18"/>
</svg>
