<?xml version="1.0" encoding="utf-8"?>
<!-- Generator: Adobe Illustrator 26.0.1, SVG Export Plug-In . SVG Version: 6.00 Build 0)  -->
<svg version="1.1" id="Layer_1" xmlns="http://www.w3.org/2000/svg" xmlns:xlink="http://www.w3.org/1999/xlink" x="0px" y="0px"
	 viewBox="0 0 612 792" style="enable-background:new 0 0 612 792;" xml:space="preserve">
<style type="text/css">
	.st0{stroke:#000000;stroke-width:3;stroke-miterlimit:10;}
	.st1{fill:none;}
	.st2{fill:none;stroke:#000000;stroke-width:3;stroke-miterlimit:10;}
</style>
<g>
	<ellipse class="st0" cx="111.04" cy="243.18" rx="12.29" ry="12.36"/>
</g>
<g>
	<ellipse class="st0" cx="111.04" cy="427.77" rx="12.29" ry="12.36"/>
</g>
<g>
	<ellipse class="st0" cx="463.93" cy="127.81" rx="12.29" ry="12.36"/>
</g>
<g>
	<ellipse class="st0" cx="463.93" cy="288.23" rx="12.29" ry="12.36"/>
</g>
<g>
	<ellipse class="st0" cx="459.56" cy="448.64" rx="12.29" ry="12.36"/>
</g>
<g>
	<g>
		<path d="M105.11,224.09h3.19v-10.32h-2.54v-1.16c1.27-0.22,2.19-0.56,2.96-1.03h1.37v12.51h2.88v1.5h-7.87V224.09z"/>
	</g>
</g>
<rect x="103.39" y="382.99" class="st1" width="9.59" height="9.89"/>
<g>
	<g>
		<path d="M457.95,104.94l0.9-1.18c0.84,0.87,1.93,1.65,3.56,1.65c1.69,0,2.89-0.99,2.89-2.57c0-1.67-1.14-2.78-4.45-2.78v-1.39
			c2.95,0,3.96-1.14,3.96-2.61c0-1.36-0.93-2.22-2.41-2.22c-1.17,0-2.15,0.59-2.97,1.42l-0.97-1.15c1.08-1,2.35-1.75,4-1.75
			c2.42,0,4.17,1.3,4.17,3.56c0,1.69-1.02,2.77-2.53,3.33v0.09c1.68,0.4,3.02,1.64,3.02,3.56c0,2.5-2.05,4-4.6,4
			C460.29,106.92,458.89,105.98,457.95,104.94z"/>
	</g>
</g>
<g>
	<g>
		<path d="M478.49,261.25c0-0.74,0.06-1.95,0.1-2.69h-0.09c-0.35,0.67-0.74,1.28-1.14,1.98l-3.26,4.79h7.98v1.44h-9.86v-1.19
			l5.96-8.95h2v14.01h-1.7V261.25z"/>
	</g>
</g>
<g>
	<g>
		<path d="M459.82,422.81l0.89-1.18c0.83,0.83,1.88,1.6,3.52,1.6c1.7,0,3.05-1.24,3.05-3.19c0-1.94-1.17-3.08-2.96-3.08
			c-0.96,0-1.56,0.3-2.39,0.85l-0.95-0.61l0.46-6.75h6.97v1.55h-5.4l-0.37,4.16c0.65-0.36,1.28-0.58,2.14-0.58
			c2.38,0,4.32,1.36,4.32,4.39c0,3.04-2.27,4.75-4.69,4.75C462.16,424.73,460.79,423.79,459.82,422.81z"/>
	</g>
</g>
<g>
	<g>
		<path d="M105.98,407.74c4.19-4.2,6.56-6.72,6.56-9c0-1.6-0.86-2.73-2.64-2.73c-1.17,0-2.17,0.74-2.96,1.68l-1.04-1.02
			c1.17-1.29,2.42-2.13,4.23-2.13c2.58,0,4.18,1.64,4.18,4.13c0,2.63-2.4,5.24-5.69,8.72c0.75-0.06,1.62-0.12,2.34-0.12h4.03v1.55
			h-9V407.74z"/>
	</g>
</g>
<line class="st2" x1="111.04" y1="243.18" x2="463.93" y2="127.81"/>
<line class="st2" x1="111.04" y1="427.77" x2="463.93" y2="133.85"/>
<line class="st2" x1="463.93" y1="288.23" x2="457.95" y2="448.64"/>
<line class="st2" x1="463.93" y1="140.17" x2="463.93" y2="288.23"/>
</svg>
