<?xml version="1.0" encoding="utf-8"?>
<!-- Generator: Adobe Illustrator 26.0.1, SVG Export Plug-In . SVG Version: 6.00 Build 0)  -->
<svg version="1.1" id="Layer_1" xmlns="http://www.w3.org/2000/svg" xmlns:xlink="http://www.w3.org/1999/xlink" x="0px" y="0px"
	 viewBox="0 0 612 792" style="enable-background:new 0 0 612 792;" xml:space="preserve">
<style type="text/css">
	.st0{fill:none;stroke:#000000;stroke-width:3;stroke-miterlimit:10;}
	.st1{stroke:#000000;stroke-width:3;stroke-miterlimit:10;}
</style>
<line class="st0" x1="305.87" y1="606.77" x2="305.87" y2="216.54"/>
<line class="st0" x1="305.87" y1="310.66" x2="231.12" y2="396"/>
<line class="st0" x1="390.36" y1="391.37" x2="306.21" y2="315.29"/>
<line class="st0" x1="230.71" y1="396.46" x2="155.95" y2="481.8"/>
<circle class="st1" cx="305.87" cy="314.99" r="9.42"/>
<circle class="st1" cx="223.1" cy="405.15" r="9.42"/>
<circle class="st1" cx="388.65" cy="395.73" r="9.42"/>
<circle class="st1" cx="305.87" cy="216.54" r="9.42"/>
<circle class="st1" cx="155.9" cy="481.86" r="9.42"/>
<line class="st0" x1="463.4" y1="310.39" x2="388.65" y2="395.73"/>
<circle class="st1" cx="459.37" cy="314.99" r="9.42"/>
<circle class="st1" cx="305.87" cy="597.34" r="9.42"/>
<circle class="st1" cx="305.87" cy="472.44" r="9.42"/>
<line class="st0" x1="390.36" y1="548.89" x2="306.21" y2="472.8"/>
<circle class="st1" cx="390.46" cy="548.98" r="9.42"/>
<circle class="st1" cx="231.12" cy="557.78" r="9.42"/>
<line class="st0" x1="305.87" y1="472.44" x2="231.12" y2="557.78"/>
<line class="st0" x1="224.96" y1="405.15" x2="140.81" y2="329.06"/>
<circle class="st1" cx="146.48" cy="334.19" r="9.42"/>
<circle class="st1" cx="74.85" cy="414.57" r="9.42"/>
<line class="st0" x1="146.48" y1="332.81" x2="71.72" y2="418.15"/>
<line class="st0" x1="540" y1="391.1" x2="455.84" y2="315.02"/>
<circle class="st1" cx="536.89" cy="388.29" r="9.42"/>
</svg>
