<?xml version="1.0" encoding="utf-8"?>
<!-- Generator: Adobe Illustrator 26.0.1, SVG Export Plug-In . SVG Version: 6.00 Build 0)  -->
<svg version="1.1" id="Layer_1" xmlns="http://www.w3.org/2000/svg" xmlns:xlink="http://www.w3.org/1999/xlink" x="0px" y="0px"
	 viewBox="0 0 612 792" style="enable-background:new 0 0 612 792;" xml:space="preserve">
<style type="text/css">
	.st0{fill:none;stroke:#000000;stroke-width:3;stroke-miterlimit:10;}
	.st1{stroke:#000000;stroke-width:3;stroke-miterlimit:10;}
</style>
<line class="st0" x1="244.79" y1="197.7" x2="350.58" y2="564"/>
<line class="st0" x1="350.58" y1="197.7" x2="244.79" y2="564"/>
<line class="st0" x1="153.16" y1="246.77" x2="445.51" y2="509.62"/>
<line class="st0" x1="100.27" y1="331.77" x2="495.11" y2="429.92"/>
<line class="st0" x1="100.27" y1="429.92" x2="495.11" y2="331.77"/>
<line class="st0" x1="153.16" y1="514.92" x2="442.21" y2="246.77"/>
<circle class="st1" cx="297.69" cy="378.19" r="11.04"/>
<circle class="st1" cx="246.29" cy="202.91" r="11.04"/>
<circle class="st1" cx="350.58" cy="202.91" r="11.04"/>
<circle class="st1" cx="439.58" cy="249.21" r="11.04"/>
<circle class="st1" cx="155.87" cy="249.21" r="11.04"/>
<circle class="st1" cx="100.27" cy="331.77" r="11.04"/>
<circle class="st1" cx="100.27" cy="429.92" r="11.04"/>
<circle class="st1" cx="151.84" cy="516.15" r="11.04"/>
<circle class="st1" cx="244.79" cy="564" r="11.04"/>
<circle class="st1" cx="350.58" cy="564" r="11.04"/>
<circle class="st1" cx="495.11" cy="331.77" r="11.04"/>
<circle class="st1" cx="448.7" cy="512.49" r="11.04"/>
<circle class="st1" cx="495.11" cy="429.92" r="11.04"/>
</svg>
