<?xml version="1.0" encoding="utf-8"?>
<!-- Generator: Adobe Illustrator 26.0.1, SVG Export Plug-In . SVG Version: 6.00 Build 0)  -->
<svg version="1.1" id="Layer_1" xmlns="http://www.w3.org/2000/svg" xmlns:xlink="http://www.w3.org/1999/xlink" x="0px" y="0px"
	 viewBox="0 0 612 792" style="enable-background:new 0 0 612 792;" xml:space="preserve">
<style type="text/css">
	.st0{stroke:#000000;stroke-width:3;stroke-miterlimit:10;}
	.st1{font-family:'ArialMT';}
	.st2{font-size:19.444px;}
	.st3{fill:none;stroke:#000000;stroke-width:3;stroke-miterlimit:10;}
</style>
<g>
	<ellipse class="st0" cx="238.3" cy="222.3" rx="8.1" ry="7"/>
</g>
<text transform="matrix(1.1517 0 0 1 185.1 272.9124)" class="st1 st2">5</text>
<g>
	<ellipse class="st0" cx="177" cy="323.5" rx="8.1" ry="7"/>
</g>
<g>
	<ellipse class="st0" cx="314.1" cy="323.5" rx="8.1" ry="7"/>
</g>
<g>
	<ellipse class="st0" cx="139" cy="411.5" rx="8.1" ry="7"/>
</g>
<g>
	<ellipse class="st0" cx="238.3" cy="411.5" rx="8.1" ry="7"/>
</g>
<g>
	<ellipse class="st0" cx="378.9" cy="411.5" rx="8.1" ry="7"/>
</g>
<line class="st3" x1="177" y1="323.5" x2="238.3" y2="222.3"/>
<line class="st3" x1="314.1" y1="323.5" x2="238.3" y2="222.3"/>
<line class="st3" x1="139" y1="411.5" x2="177" y2="323.5"/>
<line class="st3" x1="238.3" y1="411.5" x2="177" y2="323.5"/>
<line class="st3" x1="378.9" y1="411.5" x2="314.1" y2="323.5"/>
<text transform="matrix(1.1517 0 0 1 138.9999 374.6861)" class="st1 st2">4</text>
<text transform="matrix(1.1517 0 0 1 219.4281 374.9195)" class="st1 st2">3</text>
<text transform="matrix(1.1517 0 0 1 285.953 272.9124)" class="st1 st2">3</text>
<text transform="matrix(1.1517 0 0 1 359.9999 367.5)" class="st1 st2">2</text>
</svg>
