<?xml version="1.0" encoding="utf-8"?>
<!-- Generator: Adobe Illustrator 26.0.1, SVG Export Plug-In . SVG Version: 6.00 Build 0)  -->
<svg version="1.1" id="Layer_1" xmlns="http://www.w3.org/2000/svg" xmlns:xlink="http://www.w3.org/1999/xlink" x="0px" y="0px"
	 viewBox="0 0 612 792" style="enable-background:new 0 0 612 792;" xml:space="preserve">
<style type="text/css">
	.st0{stroke:#000000;stroke-width:3;stroke-miterlimit:10;}
	.st1{fill:none;stroke:#000000;stroke-width:3;stroke-miterlimit:10;}
	.st2{fill:#010101;}
	.st3{font-family:'ArialMT';}
	.st4{font-size:19.444px;}
</style>
<ellipse class="st0" cx="203.6" cy="282.2" rx="7.2" ry="7.3"/>
<ellipse class="st0" cx="408.4" cy="282.2" rx="7.2" ry="7.3"/>
<g>
	<ellipse class="st0" cx="203.6" cy="445.8" rx="7.2" ry="7.3"/>
</g>
<ellipse class="st0" cx="408.4" cy="445.8" rx="7.2" ry="7.3"/>
<line class="st1" x1="408.4" y1="282.2" x2="408.4" y2="445.8"/>
<line class="st1" x1="203.6" y1="445.8" x2="408.4" y2="445.8"/>
<line class="st1" x1="203.6" y1="282.2" x2="203.6" y2="445.8"/>
<line class="st1" x1="408.4" y1="282.2" x2="203.6" y2="282.2"/>
<line class="st1" x1="203.6" y1="282.2" x2="408.4" y2="445.8"/>
<line class="st1" x1="203.6" y1="445.8" x2="408.4" y2="282.2"/>
<ellipse class="st0" cx="93" cy="371.3" rx="7.2" ry="7.3"/>
<ellipse class="st0" cx="525" cy="371.3" rx="7.2" ry="7.3"/>
<line class="st1" x1="203.6" y1="282.2" x2="93" y2="371.3"/>
<line class="st1" x1="203.6" y1="445.8" x2="93" y2="371.3"/>
<line class="st1" x1="408.4" y1="282.2" x2="525" y2="371.3"/>
<line class="st1" x1="408.4" y1="445.8" x2="532.2" y2="371.3"/>
<text transform="matrix(1.1517 0 0 1 290.9203 270.1675)" class="st2 st3 st4">5</text>
<text transform="matrix(1.1517 0 0 1 137.664 313.5635)" class="st2 st3 st4">9</text>
<text transform="matrix(1.1517 0 0 1 138.6044 438.5061)" class="st2 st3 st4">4</text>
<text transform="matrix(1.1517 0 0 1 291.8607 472.7188)" class="st2 st3 st4">6</text>
<text transform="matrix(1.1517 0 0 1 184.953 371.3041)" class="st2 st3 st4">2</text>
<text transform="matrix(1.1517 0 0 1 254.7361 323.0524)" class="st2 st3 st4">4</text>
<text transform="matrix(1.1517 0 0 1 341.953 350.7188)" class="st2 st3 st4">5</text>
<text transform="matrix(1.1517 0 0 1 415.6249 371.3037)" class="st2 st3 st4">3</text>
<text transform="matrix(1.1517 0 0 1 466.7116 323.0518)" class="st2 st3 st4">2</text>
<text transform="matrix(1.1517 0 0 1 470.3124 438.5054)" class="st2 st3 st4">9</text>
</svg>
