<?xml version="1.0" encoding="utf-8"?>
<!-- Generator: Adobe Illustrator 26.0.1, SVG Export Plug-In . SVG Version: 6.00 Build 0)  -->
<svg version="1.1" id="Layer_1" xmlns="http://www.w3.org/2000/svg" xmlns:xlink="http://www.w3.org/1999/xlink" x="0px" y="0px"
	 viewBox="0 0 595.3 841.9" style="enable-background:new 0 0 595.3 841.9;" xml:space="preserve">
<style type="text/css">
	.st0{stroke:#000000;stroke-width:3;stroke-miterlimit:10;}
	.st1{font-family:'ArialMT';}
	.st2{font-size:16.8972px;}
	.st3{fill:none;stroke:#000000;stroke-width:3;stroke-miterlimit:10;}
</style>
<ellipse class="st0" cx="270.6" cy="263.9" rx="9" ry="8.9"/>
<text transform="matrix(1.179 0 0 1 222.7542 312.6029)" class="st1 st2">2</text>
<polygon class="st3" points="376.2,565.1 274.2,514.5 173.8,567.9 191.5,457.5 108.5,380.7 221.4,363 270.6,262.1 322.6,361.6 
	436,376.1 355.3,455.2 "/>
<line class="st3" x1="191.5" y1="457.5" x2="221.4" y2="363"/>
<line class="st3" x1="322.6" y1="361.6" x2="355.3" y2="455.2"/>
<line class="st3" x1="272.2" y1="517.1" x2="187.4" y2="452.7"/>
<line class="st3" x1="221.4" y1="363" x2="322.6" y2="361.6"/>
<line class="st3" x1="274.2" y1="514.5" x2="355.3" y2="455.2"/>
<ellipse class="st0" cx="113.6" cy="382.2" rx="9" ry="8.9"/>
<ellipse class="st0" cx="430" cy="378.1" rx="9" ry="8.9"/>
<ellipse class="st0" cx="378.4" cy="567.9" rx="9" ry="8.9"/>
<ellipse class="st0" cx="177.5" cy="558.9" rx="9" ry="8.9"/>
<ellipse class="st0" cx="222.8" cy="364.3" rx="9" ry="8.9"/>
<ellipse class="st0" cx="324" cy="361.2" rx="9" ry="8.9"/>
<ellipse class="st0" cx="355.3" cy="455.2" rx="9" ry="8.9"/>
<ellipse class="st0" cx="273.8" cy="514.9" rx="9" ry="8.9"/>
<ellipse class="st0" cx="193.7" cy="457.1" rx="9" ry="8.9"/>
<text transform="matrix(1.179 0 0 1 308.8572 312.6024)" class="st1 st2">4</text>
<text transform="matrix(1.179 0 0 1 270.6058 378.139)" class="st1 st2">1</text>
<text transform="matrix(1.179 0 0 1 168.4651 364.3294)" class="st1 st2">6</text>
<text transform="matrix(1.179 0 0 1 148.2571 448.1312)" class="st1 st2">1</text>
<text transform="matrix(1.179 0 0 1 213.7606 424.1644)" class="st1 st2">3</text>
<text transform="matrix(1.179 0 0 1 240.5911 484.8617)" class="st1 st2">5</text>
<text transform="matrix(1.179 0 0 1 163.8533 514.9222)" class="st1 st2">2</text>
<text transform="matrix(1.179 0 0 1 231.7484 555.2592)" class="st1 st2">4</text>
<text transform="matrix(1.179 0 0 1 301.5433 484.8607)" class="st1 st2">4</text>
<text transform="matrix(1.179 0 0 1 309.4334 555.2592)" class="st1 st2">2</text>
<text transform="matrix(1.179 0 0 1 378.3528 523.8558)" class="st1 st2">1</text>
<text transform="matrix(1.179 0 0 1 364.2767 361.1922)" class="st1 st2">3</text>
<text transform="matrix(1.179 0 0 1 394.2581 435.9818)" class="st1 st2">4</text>
<text transform="matrix(1.179 0 0 1 323.9759 415.0101)" class="st1 st2">2</text>
</svg>
