<?xml version="1.0" encoding="utf-8"?>
<!-- Generator: Adobe Illustrator 26.0.1, SVG Export Plug-In . SVG Version: 6.00 Build 0)  -->
<svg version="1.1" id="Layer_1" xmlns="http://www.w3.org/2000/svg" xmlns:xlink="http://www.w3.org/1999/xlink" x="0px" y="0px"
	 viewBox="0 0 595.3 841.9" style="enable-background:new 0 0 595.3 841.9;" xml:space="preserve">
<style type="text/css">
	.st0{fill:#FFFFFF;stroke:#000000;stroke-width:3;stroke-miterlimit:10;}
	.st1{stroke:#000000;stroke-width:3;stroke-miterlimit:10;}
	.st2{fill:none;stroke:#000000;stroke-width:3;stroke-miterlimit:10;}
	.st3{font-family:'ArialMT';}
	.st4{font-size:19.444px;}
</style>
<polygon class="st0" points="180.2,626.6 78.6,447.6 180.2,268.6 383.5,268.6 485.2,447.6 383.5,626.6 "/>
<ellipse class="st1" cx="385.8" cy="270.4" rx="10.1" ry="10.3"/>
<ellipse class="st1" cx="183.4" cy="270.4" rx="10.1" ry="10.3"/>
<ellipse class="st1" cx="80.9" cy="449.3" rx="10.1" ry="10.3"/>
<ellipse class="st1" cx="183.4" cy="625.7" rx="10.1" ry="10.3"/>
<ellipse class="st1" cx="382.2" cy="625.7" rx="10.1" ry="10.3"/>
<ellipse class="st1" cx="482.9" cy="449.3" rx="10.1" ry="10.3"/>
<line class="st2" x1="188.8" y1="617" x2="383.5" y2="268.6"/>
<line class="st2" x1="383.5" y1="626.6" x2="180.2" y2="268.6"/>
<line class="st2" x1="180.2" y1="626.6" x2="180.2" y2="268.6"/>
<line class="st2" x1="382.2" y1="636" x2="383.5" y2="268.6"/>
<text transform="matrix(1.1517 0 0 1 275.9533 260.1298)" class="st3 st4">5</text>
<text transform="matrix(1.1517 0 0 1 109.4284 366.2283)" class="st3 st4">2</text>
<text transform="matrix(1.1517 0 0 1 110.369 549.7185)" class="st3 st4">5</text>
<text transform="matrix(1.1517 0 0 1 270.6697 651.1069)" class="st3 st4">8</text>
<text transform="matrix(1.1517 0 0 1 448.5153 549.9517)" class="st3 st4">7</text>
<text transform="matrix(1.1517 0 0 1 460.0701 366.2283)" class="st3 st4">4</text>
<text transform="matrix(1.1517 0 0 1 158.9529 449.3195)" class="st3 st4">3</text>
<text transform="matrix(1.1517 0 0 1 242.9202 362.1675)" class="st3 st4">1</text>
<text transform="matrix(1.1517 0 0 1 324.428 402.2285)" class="st3 st4">4</text>
<text transform="matrix(1.1517 0 0 1 392.2698 452.2845)" class="st3 st4">3</text>
</svg>
