<?xml version="1.0" encoding="utf-8"?>
<!-- Generator: Adobe Illustrator 26.0.1, SVG Export Plug-In . SVG Version: 6.00 Build 0)  -->
<svg version="1.1" id="Layer_1" xmlns="http://www.w3.org/2000/svg" xmlns:xlink="http://www.w3.org/1999/xlink" x="0px" y="0px"
	 viewBox="0 0 612 792" style="enable-background:new 0 0 612 792;" xml:space="preserve">
<style type="text/css">
	.st0{stroke:#000000;stroke-width:3;stroke-miterlimit:10;}
	.st1{fill:none;stroke:#000000;stroke-width:3;stroke-miterlimit:10;}
	.st2{font-family:'ArialMT';}
	.st3{font-size:18px;}
</style>
<g>
	<ellipse class="st0" cx="112.9" cy="287" rx="8.1" ry="7"/>
</g>
<g>
	<ellipse class="st0" cx="112.9" cy="440" rx="8.1" ry="7"/>
</g>
<g>
	<ellipse class="st0" cx="284" cy="287" rx="8.1" ry="6.6"/>
</g>
<g>
	<ellipse class="st0" cx="450" cy="362.5" rx="8.1" ry="7"/>
</g>
<line class="st1" x1="112.9" y1="287" x2="112.9" y2="447"/>
<text transform="matrix(1 0 0 1 190.7836 271.543)" class="st2 st3">5</text>
<text transform="matrix(1 0 0 1 179 461)" class="st2 st3">6</text>
<text transform="matrix(1 0 0 1 93.4297 378.2051)" class="st2 st3">8</text>
<text transform="matrix(1 0 0 1 365.7416 316.0151)" class="st2 st3">3</text>
<g>
	<ellipse class="st0" cx="284" cy="440" rx="8.1" ry="6.6"/>
</g>
<line class="st1" x1="112.9" y1="287" x2="284" y2="287"/>
<line class="st1" x1="112.9" y1="440" x2="284" y2="440"/>
<line class="st1" x1="284" y1="287" x2="284" y2="440"/>
<line class="st1" x1="450" y1="362.5" x2="284" y2="287"/>
<line class="st1" x1="284" y1="440" x2="450" y2="362.5"/>
<text transform="matrix(1 0 0 1 179 461)" class="st2 st3">6</text>
<text transform="matrix(1 0 0 1 263.9373 378.205)" class="st2 st3">4</text>
<text transform="matrix(1 0 0 1 374.9392 428.1914)" class="st2 st3">2</text>
</svg>
