<?xml version="1.0" encoding="utf-8"?>
<!-- Generator: Adobe Illustrator 26.0.1, SVG Export Plug-In . SVG Version: 6.00 Build 0)  -->
<svg version="1.1" id="Layer_1" xmlns="http://www.w3.org/2000/svg" xmlns:xlink="http://www.w3.org/1999/xlink" x="0px" y="0px"
	 viewBox="0 0 612 792" style="enable-background:new 0 0 612 792;" xml:space="preserve">
<style type="text/css">
	.st0{fill:#FFFFFF;stroke:#000000;stroke-width:3;stroke-miterlimit:10;}
	.st1{fill:none;stroke:#000000;stroke-width:3;stroke-miterlimit:10;}
	.st2{stroke:#000000;stroke-width:3;stroke-miterlimit:10;}
</style>
<polygon class="st0" points="362.37,239.79 208.21,239.79 99.21,343.85 99.21,491.02 208.21,595.08 362.37,595.08 471.38,491.02 
	471.38,343.85 "/>
<line class="st1" x1="99.21" y1="343.85" x2="471.38" y2="491.02"/>
<line class="st1" x1="99.21" y1="491.02" x2="471.38" y2="343.85"/>
<line class="st1" x1="208.21" y1="239.79" x2="362.37" y2="595.08"/>
<line class="st1" x1="208.21" y1="595.08" x2="362.37" y2="239.79"/>
<circle class="st2" cx="208.21" cy="239.79" r="11.09"/>
<circle class="st2" cx="285.29" cy="417.44" r="11.09"/>
<circle class="st2" cx="99.21" cy="343.85" r="11.09"/>
<circle class="st2" cx="99.21" cy="491.02" r="11.09"/>
<circle class="st2" cx="211.1" cy="595.08" r="11.09"/>
<circle class="st2" cx="362.37" cy="239.79" r="11.09"/>
<circle class="st2" cx="471.38" cy="343.85" r="11.09"/>
<circle class="st2" cx="471.38" cy="491.02" r="11.09"/>
<circle class="st2" cx="362.37" cy="595.08" r="11.09"/>
</svg>
