<?xml version="1.0" encoding="utf-8"?>
<!-- Generator: Adobe Illustrator 26.0.1, SVG Export Plug-In . SVG Version: 6.00 Build 0)  -->
<svg version="1.1" id="Layer_1" xmlns="http://www.w3.org/2000/svg" xmlns:xlink="http://www.w3.org/1999/xlink" x="0px" y="0px"
	 viewBox="0 0 612 792" style="enable-background:new 0 0 612 792;" xml:space="preserve">
<style type="text/css">
	.st0{fill:#FFFFFF;stroke:#000000;stroke-width:3;stroke-miterlimit:10;}
	.st1{stroke:#000000;stroke-width:3;stroke-miterlimit:10;}
	.st2{fill:none;stroke:#000000;stroke-width:3;stroke-miterlimit:10;}
</style>
<polygon class="st0" points="297.6,201 133.3,280.3 92.8,458.6 206.5,601.6 388.8,601.6 502.5,458.6 462,280.3 "/>
<circle class="st1" cx="297.6" cy="201" r="10.7"/>
<circle class="st1" cx="297.6" cy="396.4" r="10.7"/>
<ellipse transform="matrix(7.088898e-02 -0.9975 0.9975 7.088898e-02 -151.5359 395.0725)" class="st1" cx="136.3" cy="278.9" rx="10.7" ry="10.7"/>
<circle class="st1" cx="92.8" cy="460.7" r="10.7"/>
<circle class="st1" cx="206.4" cy="601.6" r="10.7"/>
<circle class="st1" cx="387" cy="601.6" r="10.7"/>
<circle class="st1" cx="457.1" cy="278.9" r="10.7"/>
<ellipse transform="matrix(0.1602 -0.9871 0.9871 0.1602 -26.2988 877.5095)" class="st1" cx="502.5" cy="454.2" rx="10.7" ry="10.7"/>
<line class="st2" x1="136.3" y1="278.9" x2="297.6" y2="396.4"/>
<line class="st2" x1="297.6" y1="201" x2="297.6" y2="391.2"/>
<line class="st2" x1="457.1" y1="278.9" x2="297.6" y2="396.4"/>
<line class="st2" x1="506.4" y1="454.2" x2="297.6" y2="396.4"/>
<line class="st2" x1="92.8" y1="460.7" x2="297.6" y2="396.4"/>
<line class="st2" x1="206.4" y1="601.6" x2="297.6" y2="396.4"/>
<line class="st2" x1="387" y1="601.6" x2="297.6" y2="396.4"/>
</svg>
