<?xml version="1.0" encoding="utf-8"?>
<!-- Generator: Adobe Illustrator 26.0.1, SVG Export Plug-In . SVG Version: 6.00 Build 0)  -->
<svg version="1.1" id="Layer_1" xmlns="http://www.w3.org/2000/svg" xmlns:xlink="http://www.w3.org/1999/xlink" x="0px" y="0px"
	 viewBox="0 0 612 792" style="enable-background:new 0 0 612 792;" xml:space="preserve">
<style type="text/css">
	.st0{fill:#FFFFFF;stroke:#000000;stroke-width:3;stroke-miterlimit:10;}
	.st1{stroke:#000000;stroke-width:3;stroke-miterlimit:10;}
	.st2{fill:none;stroke:#000000;stroke-width:3;stroke-miterlimit:10;}
</style>
<polygon class="st0" points="323.38,210.01 193.72,256.3 124.73,373.51 148.69,506.79 254.39,593.78 392.37,593.78 498.07,506.79 
	522.03,373.51 453.04,256.3 "/>
<circle class="st1" cx="323.38" cy="401.9" r="10.06"/>
<circle class="st1" cx="124.73" cy="372.35" r="10.06"/>
<circle class="st1" cx="150.6" cy="507.42" r="10.06"/>
<circle class="st1" cx="192.16" cy="258.06" r="10.06"/>
<circle class="st1" cx="253.19" cy="593.78" r="10.06"/>
<circle class="st1" cx="390.86" cy="593.78" r="10.06"/>
<circle class="st1" cx="323.38" cy="210.01" r="10.06"/>
<circle class="st1" cx="451.9" cy="258.06" r="10.06"/>
<circle class="st1" cx="522.03" cy="372.35" r="10.06"/>
<circle class="st1" cx="494.75" cy="507.42" r="10.06"/>
<line class="st2" x1="192.16" y1="258.06" x2="323.38" y2="401.9"/>
<line class="st2" x1="323.38" y1="210.01" x2="323.38" y2="401.9"/>
<line class="st2" x1="124.73" y1="372.35" x2="323.38" y2="401.9"/>
<line class="st2" x1="150.6" y1="507.42" x2="323.38" y2="401.9"/>
<line class="st2" x1="253.19" y1="593.78" x2="323.38" y2="401.9"/>
<line class="st2" x1="453.04" y1="256.3" x2="323.38" y2="401.9"/>
<line class="st2" x1="522.03" y1="372.35" x2="323.38" y2="401.9"/>
<line class="st2" x1="498.07" y1="506.79" x2="323.38" y2="401.9"/>
<line class="st2" x1="390.86" y1="595.08" x2="323.38" y2="401.9"/>
</svg>
